<?xml version="1.0" encoding="utf-8"?>
<!-- Generator: Adobe Illustrator 25.2.0, SVG Export Plug-In . SVG Version: 6.00 Build 0)  -->
<svg version="1.1" id="Layer_1" xmlns="http://www.w3.org/2000/svg" xmlns:xlink="http://www.w3.org/1999/xlink" x="0px" y="0px"
	 viewBox="0 0 539.8 81" style="enable-background:new 0 0 539.8 81;" xml:space="preserve">
<style type="text/css">
	.st0{fill-opacity:0.3;}
	.st1{fill:#FFFFFF;}
	.st2{fill:#003E7E;}
	.st3{clip-path:url(#SVGID_2_);}
</style>
<path class="st0" d="M466.5,28L466.5,28c-2.6,0-4.8,0.9-6.7,2.8c0,0-0.1,0.1-0.1,0.1c-0.9,1-1.6,2.1-2,3.2c-0.4-1.2-1.2-2.4-2.2-3.4
	l0,0h0c-1.9-1.9-4.1-2.8-6.7-2.8c0,0,0,0,0,0c-2.2,0-4.1,0.7-5.8,2c-0.6-0.4-1.3-0.8-1.9-1c-0.3-2-1.1-3.8-2.6-5.3l0,0
	c-1.9-1.9-4.1-2.8-6.7-2.8c0,0,0,0,0,0c-2.5,0-4.7,0.9-6.5,2.6c-0.1,0-0.1,0.1-0.2,0.2c-1.7,1.7-2.6,3.6-2.7,5.8
	c-0.5,0.3-1.1,0.6-1.5,1.1c-2.3-1.8-5.5-2.7-9.4-2.7h0c-2.7,0-5.2,0.5-7.6,1.6c-1.5-0.9-3.2-1.4-5-1.4h0c-1,0-2,0.1-2.8,0.4
	c-1.4,0.4-2.7,1.2-3.8,2.4c0,0,0,0,0,0l0,0c-0.6,0.6-1.1,1.3-1.5,2c-3.6-3.4-8-5.1-13.3-5.1h0c-4.8,0-8.9,1.4-12.2,4.1
	c-0.1-0.1-0.2-0.2-0.2-0.3l0,0c-0.2-0.2-0.4-0.4-0.5-0.6c-0.1-0.1-0.1-0.1-0.2-0.2c-1.8-1.8-4-2.7-6.6-2.8h-0.1
	c-1.9,0-3.6,0.5-5.2,1.5l0,0c-1.7,1.1-2.9,2.5-3.6,4.4l0,0l-0.7,1.9l-0.3-0.9c-0.1-0.3-0.3-0.8-0.6-1.4c-0.3-0.7-0.6-1.2-0.7-1.4
	c-0.7-1-1.5-1.8-2.6-2.5l0,0c-1.6-1-3.3-1.6-5.2-1.6h0c-0.7,0-1.3,0.1-1.9,0.2v-0.8c0-2-0.5-3.7-1.6-5.3c-0.3-0.5-0.7-0.9-1.1-1.4
	c-0.1-0.1-0.2-0.2-0.2-0.2c-0.4-0.4-0.9-0.8-1.3-1.1c-1.5-1-3.2-1.5-5.1-1.5c0,0,0,0,0,0c-2.6,0-4.8,0.9-6.7,2.8
	c-1.9,1.9-2.8,4.1-2.8,6.6c0,0,0,0,0,0v0.4c-0.7-0.1-1.4-0.1-2.2-0.1h0c-5.3,0-9.5,1.9-12.8,5.7c-0.1,0.1-0.1,0.1-0.1,0.2
	c-1,1.1-1.9,2.4-2.6,3.8l-4.4-11.3c-0.9-2.4-2.5-4.3-4.6-5.8c0,0,0,0-0.1,0c-2.2-1.5-4.6-2.3-7.3-2.3c-2.6,0-5,0.7-7.2,2.2
	c-0.1,0-0.1,0.1-0.2,0.1c-2.1,1.4-3.6,3.3-4.5,5.6c0,0.1-0.1,0.1-0.1,0.2l-10.6,27.3c0,0.1,0,0.1-0.1,0.2c-0.4,1.1-0.6,2.2-0.6,3.3
	v0c0,2.7,1,5,2.9,6.9l0,0c1.9,1.9,4.2,2.9,7,2.9c2.1,0,4-0.6,5.7-1.8c0,0,0,0,0,0c1.7-1.2,2.8-2.7,3.5-4.5c0-0.1,0.1-0.2,0.1-0.4
	l0-0.1l0,0h7.9c0,0.2,0.1,0.3,0.2,0.5c0.7,1.8,1.8,3.3,3.4,4.5c0,0,0,0,0,0c1.7,1.2,3.6,1.8,5.7,1.8h0c2.7,0,5-1,7-2.8v0
	c0.2-0.2,0.4-0.5,0.7-0.7c3,2.5,6.6,3.8,10.9,3.8h0c2.4,0,4.6-0.5,6.7-1.5c1.4,0.9,3.1,1.3,4.8,1.3c0,0,0,0,0,0
	c1.9,0,3.6-0.5,5.1-1.5c0.6-0.4,1.1-0.8,1.6-1.3l0,0c0.4-0.4,0.8-0.9,1.1-1.3c1-1.5,1.6-3.3,1.6-5.3v-0.2l0.3,0.8
	c0.3,0.7,0.6,1.4,0.9,2c1.1,2.1,2.4,3.7,3.9,4.9c0.9,0.6,1.8,1.1,2.7,1.4c1,0.3,2.2,0.5,3.6,0.4c2.4,0,4.5-0.7,6.3-1.9
	c1.8-1.2,3.1-2.9,4-4.9c0,0,0,0,0,0l1.4-3.4c0.3,0.6,0.6,1.1,0.9,1.7c0.8,1.3,1.8,2.5,3,3.6l0,0c3.7,3.6,8.4,5.4,14.2,5.4
	c2.1,0,4-0.2,5.9-0.7l0,0c2.1-0.5,4-1.3,5.7-2.3l0.1-0.1c0,0,0,0,0,0c0.6-0.4,1.1-0.8,1.6-1.3c0.3,0.4,0.7,0.9,1.1,1.3
	c1.1,1.1,2.4,1.9,3.8,2.3c0.9,0.3,1.9,0.4,2.9,0.4c2.5,0,4.8-0.9,6.6-2.8c0,0,0,0,0,0l0-0.1c1-1,1.7-2.1,2.1-3.4
	c0.4,1.2,1.2,2.4,2.2,3.4h0c1.8,1.9,4.1,2.8,6.7,2.8h0c2.6,0,4.9-0.9,6.7-2.8l0,0c0,0,0,0,0.1-0.1c0,0,0,0,0,0
	c0.5-0.6,1-1.1,1.4-1.8c0.4,0.5,0.8,1,1.3,1.4c1.1,1.2,2.4,2,3.8,2.6c1.5,0.6,3.3,0.9,5.4,0.9c2.3,0,4.3-0.4,6.1-1.1
	c1.2-0.5,2.1-1.2,2.8-2c0.4,0.4,0.9,0.8,1.7,1.3c1.1,0.6,2.3,1.1,3.6,1.5c3.8,1,7.9,0.6,12.1-1.3c1.5,0.9,3.1,1.4,5,1.4
	c1.1,0,2.2-0.2,3.3-0.6c1.2-0.4,2.1-0.9,2.8-1.6c0.4-0.3,0.6-0.6,0.8-0.9c0.1,0.1,0.1,0.1,0.2,0.2l0,0c1.5,1.5,3.3,2.4,5.3,2.7
	c0.4,0.1,0.9,0.1,1.3,0.1c0,0,0,0,0,0c2.6,0,4.8-0.9,6.6-2.8v0c1.8-1.8,2.8-4.1,2.7-6.6c0,0,0,0,0,0v-3.7c0.9,3.1,2.6,5.8,5,8l0,0
	c3.7,3.6,8.4,5.4,14.2,5.4c2.1,0,4-0.2,5.9-0.7l0,0c2.1-0.5,4-1.3,5.7-2.3l0.1-0.1c0,0,0,0,0,0c1.2-0.8,2.2-1.7,2.9-2.8c0,0,0,0,0,0
	c0.9-1.5,1.4-3,1.4-4.6c0,0,0,0,0,0c0-1.1-0.2-2.2-0.6-3.2c0,0-0.1,0.1-0.1,0.1c0,0,0,0,0,0c0,0,0.1-0.1,0.1-0.1c0,0,0,0,0,0
	c2.1-1.5,3.2-3.9,3.2-7v0c0-5.2-1.8-9.5-5.4-13.1l0,0c-3.6-3.7-8.2-5.5-13.8-5.5h0c-4.5,0-8.3,1.2-11.5,3.6
	c-0.1-0.2-0.3-0.4-0.4-0.5l0,0c-1.7-1.9-3.9-2.9-6.6-2.9h0c-0.8,0-1.5,0.1-2.3,0.3c-0.4,0.1-0.9,0.2-1.4,0.5c-0.2,0-0.3,0.1-0.5,0.2
	c-0.3,0.1-0.5,0.2-0.7,0.3c-1.4-0.8-2.9-1.2-4.6-1.2c-0.4,0-0.9,0-1.3,0.1c-2.1,0.3-3.9,1.2-5.4,2.8c0,0-0.1,0.1-0.1,0.1
	c-0.2-0.2-0.5-0.5-1-0.9c-0.8-0.6-1.6-1.1-2.5-1.4C468.8,28.2,467.7,28,466.5,28z M451.5,34.3L451.5,34.3c0.8,0.9,1.3,1.9,1.3,3.1
	v12.8c0,2.6,1.3,4,4,4c2.1,0,3.8-0.8,5.1-2.4V37.3c0-1.2,0.4-2.2,1.2-3l0,0c0.8-0.9,1.9-1.3,3-1.3c1.2,0,2.2,0.4,3,1.3
	c0.9,0.9,1.3,1.9,1.3,3.1v20c0,1.2-0.4,2.2-1.3,3.1c0,0,0,0,0,0c-0.8,0.9-1.8,1.3-3,1.3c-1.2,0-2.2-0.4-3.1-1.3c0,0,0,0,0,0
	c-0.5-0.4-0.8-0.9-1-1.5c-2.4,2-5.2,3-8.6,3c-6.2,0-9.4-3-9.3-9.1V37.3c0-1.2,0.4-2.2,1.3-3.1h0c0.8-0.9,1.9-1.3,3.1-1.3
	C449.6,33,450.6,33.4,451.5,34.3z M487.3,33.4C487.3,33.4,487.3,33.4,487.3,33.4c0.8-0.4,1.5-0.5,2-0.5c1.2,0,2.1,0.4,2.8,1.2
	c0.6,0.7,0.9,1.6,0.9,2.7c0,2.4-1.3,3.9-4,4.2h0c-2.3,0.3-3.9,1.1-4.9,2.3v13.9c0,1.2-0.4,2.2-1.2,3.1c0,0,0,0,0,0
	c-0.9,0.8-1.9,1.3-3,1.2c-1.2,0-2.2-0.4-3.1-1.3l0,0c-0.8-0.9-1.3-1.9-1.3-3.1V37.4c0-1.2,0.4-2.2,1.2-3.1c0,0,0,0,0,0
	c0.8-0.9,1.8-1.3,3-1.3c1.2,0,2.3,0.4,3.1,1.3c0,0,0,0,0,0c0.5,0.4,0.8,0.9,1,1.5C485,34.6,486.1,33.9,487.3,33.4
	C487.3,33.4,487.3,33.4,487.3,33.4z M493.5,47.3c0-4.1,1.3-7.5,4-10.3c2.8-2.8,6.2-4.3,10.4-4.3c4.1,0,7.4,1.3,10.1,4
	c1.6,1.6,2.7,3.4,3.3,5.4c0.4,1.3,0.6,2.7,0.6,4.1c0,1-0.2,1.8-0.6,2.4c-0.8,1.1-2.2,1.7-4.4,1.7h-14.3c0.3,1.1,0.9,2,1.8,2.8
	c1.2,1.1,2.8,1.6,4.7,1.6c1.7,0,3.3-0.5,4.9-1.4c0,0,0,0,0,0c0.5-0.3,1.1-0.4,1.7-0.4c1,0,1.8,0.4,2.5,1.1c0,0,0,0,0,0
	c0.7,0.7,1.1,1.5,1.1,2.5c0,1.3-0.6,2.3-1.9,3.1c0,0,0,0,0,0c-2.7,1.5-5.7,2.3-9.1,2.3c-4.3,0-7.8-1.3-10.6-4
	C494.9,55.2,493.5,51.7,493.5,47.3z M524,59.9C524,59.9,524,59.9,524,59.9L524,59.9L524,59.9z M338.3,33c2,0,3.3,0.9,4,2.7l5.5,14.5
	l5.5-14.5c0.7-1.8,2-2.7,4-2.7c1.2,0,2.2,0.4,3.1,1.3h0c0.8,0.8,1.2,1.8,1.2,3c0,0.1,0,0.1,0,0.2l-0.3,1.3c0,0,0,0.1,0,0.1
	l-7.7,18.9c0,0,0,0,0,0c-1.1,2.5-3,3.8-5.6,3.8c-2.8,0-4.7-1.3-5.7-3.8l0,0l-7.7-19c0-0.1,0-0.1-0.1-0.1l-0.3-1.2c0-0.1,0-0.1,0-0.2
	c0-1.2,0.4-2.2,1.2-3C336.1,33.4,337.1,33,338.3,33z M366.6,37c2.8-2.8,6.2-4.3,10.4-4.3c4.1,0,7.4,1.3,10.1,4
	c2.6,2.6,3.9,5.8,3.9,9.5c0.1,2.7-1.6,4.1-5,4.1h-14.3c0.3,1.1,0.9,2,1.8,2.8c1.2,1.1,2.8,1.6,4.7,1.6c1.7,0,3.3-0.5,4.9-1.4
	c0,0,0,0,0,0c0.5-0.3,1.1-0.4,1.7-0.4c1,0,1.8,0.4,2.5,1.1c0,0,0,0,0,0c0.7,0.7,1.1,1.5,1.1,2.5c0,1.3-0.6,2.3-1.9,3.1c0,0,0,0,0,0
	c-2.7,1.5-5.7,2.3-9.1,2.3c-4.3,0-7.8-1.3-10.6-4c-2.8-2.7-4.3-6.3-4.3-10.7C362.6,43.2,364,39.8,366.6,37z M401.7,34.2
	c0.5,0.5,0.8,1,1,1.5c2.3-2,5.2-3,8.5-3c6.3,0,9.4,3.1,9.4,9.2v15.4c0,1.2-0.4,2.2-1.3,3.1l0,0c-0.8,0.8-1.9,1.3-3.1,1.3
	c-1.2,0-2.2-0.4-3-1.3l0,0c-0.8-0.9-1.2-1.9-1.2-3.1V44.6c0-2.7-1.3-4-4-4c-2.1,0-3.8,0.8-5.1,2.5v14.2c0,1.2-0.4,2.2-1.2,3.1
	c0,0,0,0,0,0c-0.9,0.8-1.9,1.3-3,1.2c-1.2,0-2.2-0.4-3.1-1.3l0,0c-0.8-0.9-1.3-1.9-1.3-3.1v-20c0-1.2,0.4-2.2,1.2-3.1c0,0,0,0,0,0
	c0.8-0.9,1.8-1.3,3-1.3C399.8,33,400.8,33.4,401.7,34.2z M434.5,27.2c0.8,0.8,1.2,1.9,1.2,3v3.2h1.9c1,0,2,0.4,2.7,1.1l0,0
	c0.7,0.8,1.1,1.7,1.1,2.8c0,1-0.4,1.9-1.1,2.7c-0.8,0.7-1.7,1.1-2.7,1.1h-1.9v11c0,1.3,0.5,2,1.5,2l1.1-0.1c0,0,0.1,0,0.1,0
	c2.3,0.2,3.5,1.4,3.5,3.8c0,1.8-0.9,2.9-2.7,3.5l0,0c-1.1,0.4-2.4,0.6-3.9,0.6c-5.5,0-8.3-2.7-8.3-8V41.1h-0.8c-1.1,0-2-0.4-2.7-1.1
	c0,0,0,0,0,0c-0.8-0.8-1.2-1.6-1.2-2.7c0-1.1,0.4-2,1.2-2.8c0.7-0.7,1.7-1.1,2.7-1.1h0.8v-3.2c0-1.2,0.4-2.2,1.3-3v0
	c0.9-0.9,1.9-1.3,3.1-1.3C432.7,25.9,433.7,26.3,434.5,27.2z M277.5,19.8L277.5,19.8L277.5,19.8L277.5,19.8z M276.4,27.9
	c0.6-1.5,1.5-2.6,2.7-3.5h0c1.3-0.9,2.8-1.3,4.4-1.3c1.6,0,3.1,0.4,4.4,1.3h0c1.3,0.9,2.2,2.1,2.8,3.5v0l10.5,27.3l0,0
	c0.3,0.6,0.4,1.2,0.4,1.7c0,1.3-0.5,2.4-1.4,3.4h0c-0.9,0.9-2.1,1.4-3.4,1.4c-2.3,0-3.8-1.1-4.4-3.2l-1.3-3.7H276l-1.3,3.6
	c0,0,0,0,0,0c-0.7,2.1-2.2,3.2-4.5,3.2c-1.3,0-2.5-0.5-3.4-1.4c-0.9-0.9-1.4-2.1-1.4-3.4c0-0.1,0-0.1,0-0.2l0.3-1.3
	c0-0.1,0-0.1,0-0.1L276.4,27.9L276.4,27.9z M302.9,47.3c0-4.4,1.2-8,3.5-10.6c2.3-2.6,5.3-4,9-4c2.8,0,5.2,0.9,7.2,2.7v-8.1
	c0-1.2,0.4-2.2,1.3-3.1h0c0.8-0.8,1.8-1.3,3-1.3c1.2,0,2.2,0.4,3,1.3c0.9,0.9,1.3,1.9,1.3,3.1v29.9c0,1.2-0.4,2.3-1.2,3.1l0,0
	c-0.8,0.9-1.9,1.3-3.1,1.3c-1.2,0-2.2-0.4-3.1-1.2v0c-0.5-0.5-0.8-1-1-1.5c-2.1,2-4.6,2.9-7.5,2.9c-3.7,0-6.7-1.3-8.9-3.9v0
	C304.1,55.4,302.9,51.8,302.9,47.3z M276.9,62.9C276.9,62.9,276.9,62.9,276.9,62.9L276.9,62.9L276.9,62.9z M276.1,64.8
	C276.1,64.7,276.1,64.7,276.1,64.8L276.1,64.8L276.1,64.8z M406.2,62.3C406.2,62.3,406.2,62.3,406.2,62.3L406.2,62.3L406.2,62.3z
	 M313.2,42.8c0,0-0.1,0.1-0.1,0.1c-1,1.1-1.5,2.6-1.5,4.4c0,1.8,0.5,3.3,1.5,4.4c0,0,0,0,0,0c1,1.1,2.3,1.7,4,1.7h0
	c0.9,0,1.8-0.1,2.5-0.4c1-0.4,1.8-1,2.4-1.8v-0.4c0-0.1,0-0.2,0-0.2v-6.5c0-0.1,0-0.2,0-0.2v-0.4c-0.7-0.9-1.6-1.6-2.7-1.9
	c-0.7-0.2-1.4-0.4-2.3-0.4c0,0,0,0,0,0C315.5,41.1,314.2,41.7,313.2,42.8z M277.8,46c-0.1,0.3-0.1,0.5,0,0.8
	c0.1,0.3,0.2,0.5,0.5,0.7c0.2,0.2,0.5,0.2,0.8,0.2h9.1c0.3,0,0.5-0.1,0.8-0.2c0.2-0.2,0.4-0.4,0.5-0.7c0.1-0.3,0.1-0.5,0-0.8
	l-4.6-12.9c-0.1-0.3-0.3-0.5-0.5-0.6c-0.2-0.2-0.5-0.2-0.7-0.2c-0.3,0-0.5,0.1-0.7,0.2c-0.2,0.2-0.4,0.4-0.5,0.6L277.8,46z
	 M371.1,44.7c0.1,0.1,0.3,0.2,0.5,0.2h10.9c0.2,0,0.3,0,0.5-0.1c0.1-0.1,0.2-0.2,0.3-0.4c0.1-0.2,0.1-0.3,0-0.5
	c-0.2-1.1-0.7-2-1.4-2.8c0,0,0,0-0.1-0.1c-1.2-1.3-2.8-1.9-4.8-1.9c-2,0-3.5,0.6-4.7,1.9l0,0c-0.7,0.8-1.3,1.7-1.5,2.8
	c-0.1,0.2,0,0.3,0,0.5C370.9,44.5,371,44.6,371.1,44.7z M502,44.7c0.1,0.1,0.3,0.2,0.5,0.2h10.9c0.2,0,0.3,0,0.5-0.1
	c0.1-0.1,0.2-0.2,0.3-0.4c0.1-0.2,0.1-0.3,0-0.5c-0.2-1.1-0.7-2-1.4-2.8c0,0,0,0-0.1-0.1c-1.2-1.3-2.8-1.9-4.8-1.9
	c-2,0-3.5,0.6-4.7,1.9l0,0c-0.7,0.8-1.2,1.7-1.5,2.8c-0.1,0.2,0,0.3,0,0.5C501.7,44.5,501.9,44.6,502,44.7z"/>
<path class="st1" d="M306.4,36.7c-2.3,2.7-3.5,6.2-3.5,10.6c0,4.5,1.2,8.1,3.5,10.7v0c2.3,2.6,5.3,3.9,8.9,3.9c2.9,0,5.4-1,7.5-2.9
	c0.2,0.6,0.6,1.1,1,1.5v0c0.9,0.8,1.9,1.2,3.1,1.2c1.2,0,2.2-0.4,3.1-1.3l0,0c0.8-0.8,1.2-1.9,1.2-3.1V27.4c0-1.2-0.4-2.2-1.3-3.1
	c-0.8-0.8-1.9-1.3-3-1.3c-1.2,0-2.2,0.4-3,1.3h0c-0.9,0.9-1.3,1.9-1.3,3.1v8.1c-2-1.8-4.4-2.7-7.2-2.7
	C311.7,32.7,308.7,34.1,306.4,36.7z M313.1,42.9c0,0,0.1-0.1,0.1-0.1c1-1.1,2.3-1.7,3.9-1.7c0,0,0,0,0,0c0.8,0,1.6,0.1,2.3,0.4
	c1.1,0.3,2,1,2.7,1.9v0.4c0,0.1,0,0.1,0,0.2v6.5c0,0.1,0,0.2,0,0.2v0.4c-0.6,0.9-1.5,1.5-2.4,1.8c-0.7,0.3-1.6,0.5-2.5,0.4h0
	c-1.6,0-2.9-0.6-4-1.7c0,0,0,0,0,0c-1-1.1-1.5-2.6-1.5-4.4C311.6,45.5,312.1,44,313.1,42.9z M279.2,24.4c-1.3,0.9-2.2,2.1-2.7,3.5v0
	l-10.6,27.3c0,0,0,0.1,0,0.1l-0.3,1.3c0,0.1,0,0.1,0,0.2c0,1.3,0.5,2.4,1.4,3.4c0.9,0.9,2,1.4,3.4,1.4c2.3,0,3.8-1.1,4.5-3.2
	c0,0,0,0,0,0l1.3-3.6h15.1l1.3,3.7c0.7,2.1,2.2,3.2,4.4,3.2c1.3,0,2.5-0.5,3.4-1.4h0c0.9-0.9,1.4-2.1,1.4-3.4c0-0.5-0.1-1.1-0.4-1.7
	l0,0l-10.5-27.3v0c-0.6-1.5-1.5-2.6-2.8-3.5h0c-1.3-0.9-2.8-1.3-4.4-1.3C282,23.1,280.5,23.5,279.2,24.4L279.2,24.4z M277.8,46.8
	c-0.1-0.3-0.1-0.5,0-0.8l4.6-12.9c0.1-0.3,0.2-0.5,0.5-0.6c0.2-0.2,0.5-0.2,0.7-0.2c0.3,0,0.5,0.1,0.7,0.2c0.2,0.2,0.4,0.4,0.5,0.6
	l4.6,12.9c0.1,0.3,0.1,0.5,0,0.8c-0.1,0.3-0.2,0.5-0.5,0.7c-0.2,0.2-0.5,0.2-0.8,0.2H279c-0.3,0-0.5-0.1-0.8-0.2
	C278,47.3,277.9,47.1,277.8,46.8z M435.8,30.2c0-1.2-0.4-2.2-1.2-3c-0.8-0.9-1.9-1.3-3-1.3c-1.2,0-2.2,0.4-3.1,1.3v0
	c-0.9,0.8-1.3,1.8-1.3,3v3.2h-0.8c-1.1,0-2,0.4-2.7,1.1c-0.8,0.8-1.2,1.7-1.2,2.8c0,1,0.4,1.9,1.2,2.7c0,0,0,0,0,0
	c0.7,0.7,1.7,1.1,2.7,1.1h0.8v12.8c0,5.3,2.8,8,8.3,8c1.5,0,2.8-0.2,3.9-0.6l0,0c1.8-0.6,2.7-1.7,2.7-3.5c0-2.4-1.2-3.7-3.5-3.8
	c0,0-0.1,0-0.1,0l-1.1,0.1c-1-0.1-1.5-0.7-1.5-2v-11h1.9c1,0,2-0.4,2.7-1.1c0.7-0.8,1.1-1.6,1.1-2.7c0-1.1-0.4-2-1.1-2.8l0,0
	c-0.8-0.8-1.7-1.1-2.7-1.1h-1.9V30.2z M402.7,35.8c-0.2-0.6-0.6-1.1-1-1.5c-0.8-0.9-1.9-1.3-3.1-1.3c-1.2,0-2.2,0.4-3,1.3
	c0,0,0,0,0,0c-0.8,0.8-1.2,1.9-1.2,3.1v20c0,1.2,0.4,2.2,1.3,3.1l0,0c0.8,0.8,1.9,1.3,3.1,1.3c1.1,0,2.1-0.4,3-1.2c0,0,0,0,0,0
	c0.8-0.9,1.2-1.9,1.2-3.1V43.1c1.3-1.7,3-2.5,5.1-2.5c2.7,0,4,1.3,4,4v12.7c0,1.2,0.4,2.2,1.2,3.1l0,0c0.8,0.8,1.8,1.3,3,1.3
	c1.2,0,2.2-0.4,3.1-1.3l0,0c0.8-0.9,1.3-1.9,1.3-3.1V41.9c0-6.1-3.1-9.2-9.4-9.2C407.9,32.7,405,33.8,402.7,35.8z M377,32.7
	c-4.2,0-7.7,1.4-10.4,4.3c-2.7,2.8-4,6.2-4,10.3c0,4.4,1.4,8,4.3,10.7c2.8,2.6,6.3,4,10.6,4c3.4,0,6.4-0.8,9.1-2.3c0,0,0,0,0,0
	c1.3-0.8,1.9-1.8,1.9-3.1c0-1-0.4-1.8-1.1-2.5c0,0,0,0,0,0c-0.7-0.7-1.5-1.1-2.5-1.1c-0.6,0-1.2,0.1-1.7,0.4c0,0,0,0,0,0
	c-1.6,0.9-3.2,1.4-4.9,1.4c-1.9,0-3.5-0.5-4.7-1.6c-0.9-0.8-1.5-1.7-1.8-2.8H386c3.4,0,5-1.4,5-4.1c0-3.7-1.3-6.9-3.9-9.5
	C384.5,34.1,381.1,32.7,377,32.7z M371.6,44.8c-0.2,0-0.3-0.1-0.5-0.2c-0.1-0.1-0.3-0.2-0.3-0.4c-0.1-0.2-0.1-0.3,0-0.5
	c0.3-1.1,0.8-2,1.5-2.8l0,0c1.2-1.3,2.8-1.9,4.7-1.9c2,0,3.6,0.6,4.8,1.9c0,0,0,0,0.1,0.1c0.7,0.8,1.2,1.8,1.4,2.8
	c0,0.2,0,0.3,0,0.5c-0.1,0.2-0.2,0.3-0.3,0.4c-0.1,0.1-0.3,0.1-0.5,0.1H371.6z M342.2,35.7c-0.7-1.8-2-2.7-4-2.7
	c-1.2,0-2.2,0.4-3,1.3c-0.8,0.8-1.2,1.8-1.2,3c0,0.1,0,0.1,0,0.2l0.3,1.2c0,0,0,0.1,0.1,0.1l7.7,19l0,0c1,2.5,2.9,3.8,5.7,3.8
	c2.7,0,4.6-1.2,5.6-3.8c0,0,0,0,0,0l7.7-18.9c0,0,0-0.1,0-0.1l0.3-1.3c0-0.1,0-0.1,0-0.2c0-1.2-0.4-2.2-1.2-3h0
	c-0.8-0.8-1.8-1.3-3.1-1.3c-2,0-3.3,0.9-4,2.7l-5.5,14.5L342.2,35.7z M497.5,37c-2.7,2.8-4,6.2-4,10.3c0,4.4,1.4,8,4.3,10.7
	c2.8,2.6,6.3,4,10.6,4c3.4,0,6.4-0.8,9.1-2.3c0,0,0,0,0,0c1.3-0.8,1.9-1.8,1.9-3.1c0-1-0.4-1.8-1.1-2.5c0,0,0,0,0,0
	c-0.7-0.7-1.5-1.1-2.5-1.1c-0.6,0-1.2,0.1-1.7,0.4c0,0,0,0,0,0c-1.6,0.9-3.2,1.4-4.9,1.4c-1.9,0-3.5-0.5-4.7-1.6
	c-0.9-0.8-1.5-1.7-1.8-2.8h14.3c2.2,0,3.6-0.6,4.4-1.7c0.4-0.6,0.6-1.4,0.6-2.4c0-1.5-0.2-2.8-0.6-4.1c-0.6-2-1.7-3.8-3.3-5.4
	c-2.7-2.7-6-4-10.1-4C503.7,32.7,500.3,34.2,497.5,37z M502.5,44.8c-0.2,0-0.3-0.1-0.5-0.2c-0.1-0.1-0.3-0.2-0.3-0.4
	c-0.1-0.2-0.1-0.3,0-0.5c0.3-1.1,0.8-2,1.5-2.8l0,0c1.2-1.3,2.8-1.9,4.7-1.9c2,0,3.6,0.6,4.8,1.9c0,0,0,0,0.1,0.1
	c0.7,0.8,1.2,1.8,1.4,2.8c0,0.2,0,0.3,0,0.5c-0.1,0.2-0.2,0.3-0.3,0.4c-0.1,0.1-0.3,0.1-0.5,0.1H502.5z M487.4,33.4
	C487.3,33.4,487.3,33.4,487.4,33.4C487.3,33.4,487.3,33.4,487.4,33.4c-1.2,0.4-2.3,1.2-3.4,2.3c-0.2-0.5-0.5-1-1-1.5c0,0,0,0,0,0
	c-0.8-0.8-1.9-1.2-3.1-1.3c-1.2,0-2.2,0.4-3,1.3c0,0,0,0,0,0c-0.8,0.8-1.2,1.9-1.2,3.1v19.9c0,1.2,0.4,2.2,1.3,3.1l0,0
	c0.8,0.8,1.9,1.3,3.1,1.3c1.1,0,2.1-0.4,3-1.2c0,0,0,0,0,0c0.8-0.9,1.2-1.9,1.2-3.1V43.4c1-1.3,2.6-2,4.9-2.3h0c2.7-0.4,4-1.8,4-4.2
	c0-1.1-0.3-2-0.9-2.7c-0.7-0.8-1.6-1.2-2.8-1.2C488.8,32.9,488.2,33.1,487.4,33.4z M451.5,34.3L451.5,34.3c-0.9-0.9-1.9-1.3-3-1.3
	c-1.2,0-2.2,0.4-3.1,1.3h0c-0.8,0.8-1.3,1.8-1.3,3.1v15.5c0,6.1,3.1,9.1,9.3,9.1c3.4,0,6.2-1,8.6-3c0.2,0.6,0.5,1.1,1,1.5
	c0,0,0,0,0,0c0.8,0.8,1.9,1.3,3.1,1.3c1.2,0,2.2-0.4,3-1.3c0,0,0,0,0,0c0.8-0.8,1.2-1.9,1.3-3.1v-20c0-1.2-0.4-2.2-1.3-3.1
	c-0.9-0.9-1.9-1.3-3-1.3c-1.2,0-2.2,0.4-3,1.3l0,0c-0.8,0.8-1.2,1.9-1.2,3v14.3c-1.4,1.6-3.1,2.4-5.1,2.4c-2.7,0-4-1.3-4-4V37.3
	C452.7,36.2,452.3,35.1,451.5,34.3z"/>
<path class="st2" d="M466.5,24.7L466.5,24.7c-2.6,0-4.8,0.9-6.7,2.8c0,0-0.1,0.1-0.1,0.1c-0.9,1-1.6,2.1-2,3.2
	c-0.4-1.2-1.2-2.4-2.2-3.4l0,0h0c-1.9-1.9-4.1-2.8-6.7-2.8c0,0,0,0,0,0c-2.2,0-4.1,0.7-5.8,2c-0.6-0.4-1.3-0.8-1.9-1
	c-0.3-2-1.1-3.8-2.6-5.3l0,0c-1.9-1.9-4.1-2.8-6.7-2.8c0,0,0,0,0,0c-2.5,0-4.7,0.9-6.5,2.6c-0.1,0-0.1,0.1-0.2,0.2
	c-1.7,1.7-2.6,3.6-2.7,5.8c-0.5,0.3-1.1,0.6-1.5,1.1c-2.3-1.8-5.5-2.7-9.4-2.7h0c-2.7,0-5.2,0.5-7.6,1.6c-1.5-0.9-3.2-1.4-5-1.4h0
	c-1,0-2,0.1-2.8,0.4c-1.4,0.4-2.7,1.2-3.8,2.4c0,0,0,0,0,0l0,0c-0.6,0.6-1.1,1.3-1.5,2c-3.6-3.4-8-5.1-13.3-5.1h0
	c-4.8,0-8.9,1.4-12.2,4.1c-0.1-0.1-0.2-0.2-0.2-0.3l0,0c-0.2-0.2-0.4-0.4-0.5-0.6c-0.1-0.1-0.1-0.1-0.2-0.2c-1.8-1.8-4-2.7-6.6-2.8
	h-0.1c-1.9,0-3.6,0.5-5.2,1.5l0,0c-1.7,1.1-2.9,2.5-3.6,4.4l0,0l-0.7,1.9l-0.3-0.9c-0.1-0.3-0.3-0.8-0.6-1.4
	c-0.3-0.7-0.6-1.2-0.7-1.4c-0.7-1-1.5-1.8-2.6-2.5l0,0c-1.6-1-3.3-1.6-5.2-1.6h0c-0.7,0-1.3,0.1-1.9,0.2v-0.8c0-2-0.5-3.7-1.6-5.3
	c-0.3-0.5-0.7-0.9-1.1-1.4c-0.1-0.1-0.2-0.2-0.2-0.2c-0.4-0.4-0.9-0.8-1.3-1.1c-1.5-1-3.2-1.5-5.1-1.5c0,0,0,0,0,0
	c-2.6,0-4.8,0.9-6.7,2.8c-1.9,1.9-2.8,4.1-2.8,6.6c0,0,0,0,0,0v0.4c-0.7-0.1-1.4-0.1-2.2-0.1h0c-5.3,0-9.5,1.9-12.8,5.7
	c-0.1,0.1-0.1,0.1-0.1,0.2c-1,1.1-1.9,2.4-2.6,3.8l-4.4-11.3c-0.9-2.4-2.5-4.3-4.6-5.8c0,0,0,0-0.1,0c-2.2-1.5-4.6-2.3-7.3-2.3
	c-2.6,0-5,0.7-7.2,2.2c-0.1,0-0.1,0.1-0.2,0.1c-2.1,1.4-3.6,3.3-4.5,5.6c0,0.1-0.1,0.1-0.1,0.2l-10.6,27.3c0,0.1,0,0.1-0.1,0.2
	c-0.4,1.1-0.6,2.2-0.6,3.3v0c0,2.7,1,5,2.9,6.9l0,0c1.9,1.9,4.2,2.9,7,2.9c2.1,0,4-0.6,5.7-1.8c0,0,0,0,0,0c1.7-1.2,2.8-2.7,3.5-4.5
	c0-0.1,0.1-0.2,0.1-0.4l0-0.1l0,0h7.9c0,0.2,0.1,0.3,0.2,0.5c0.7,1.8,1.8,3.3,3.4,4.5c0,0,0,0,0,0c1.7,1.2,3.6,1.8,5.7,1.8h0
	c2.7,0,5-1,7-2.8v0c0.2-0.2,0.4-0.5,0.7-0.7c3,2.5,6.6,3.8,10.9,3.8h0c2.4,0,4.6-0.5,6.7-1.5c1.4,0.9,3.1,1.3,4.8,1.3c0,0,0,0,0,0
	c1.9,0,3.6-0.5,5.1-1.5c0.6-0.4,1.1-0.8,1.6-1.3l0,0c0.4-0.4,0.8-0.9,1.1-1.3c1-1.5,1.6-3.3,1.6-5.3V54l0.3,0.8
	c0.3,0.7,0.6,1.4,0.9,2c1.1,2.1,2.4,3.7,3.9,4.9c0.9,0.6,1.8,1.1,2.7,1.4c1,0.3,2.2,0.5,3.6,0.4c2.4,0,4.5-0.7,6.3-1.9
	c1.8-1.2,3.1-2.9,4-4.9c0,0,0,0,0,0l1.4-3.4c0.3,0.6,0.6,1.1,0.9,1.7c0.8,1.3,1.8,2.5,3,3.6l0,0c3.7,3.6,8.4,5.4,14.2,5.4
	c2.1,0,4-0.2,5.9-0.7l0,0c2.1-0.5,4-1.3,5.7-2.3l0.1-0.1c0,0,0,0,0,0c0.6-0.4,1.1-0.8,1.6-1.3c0.3,0.4,0.7,0.9,1.1,1.3
	c1.1,1.1,2.4,1.9,3.8,2.3c0.9,0.3,1.9,0.4,2.9,0.4c2.5,0,4.8-0.9,6.6-2.8c0,0,0,0,0,0l0-0.1c1-1,1.7-2.1,2.1-3.4
	c0.4,1.2,1.2,2.4,2.2,3.4h0c1.8,1.9,4.1,2.8,6.7,2.8h0c2.6,0,4.9-0.9,6.7-2.8l0,0c0,0,0,0,0.1-0.1c0,0,0,0,0,0
	c0.5-0.6,1-1.1,1.4-1.8c0.4,0.5,0.8,1,1.3,1.4c1.1,1.2,2.4,2,3.8,2.6c1.5,0.6,3.3,0.9,5.4,0.9c2.3,0,4.3-0.4,6.1-1.1
	c1.2-0.5,2.1-1.2,2.8-2c0.4,0.4,0.9,0.8,1.7,1.3c1.1,0.6,2.3,1.1,3.6,1.5c3.8,1,7.9,0.6,12.1-1.3c1.5,0.9,3.1,1.4,5,1.4
	c1.1,0,2.2-0.2,3.3-0.6c1.2-0.4,2.1-0.9,2.8-1.6c0.4-0.3,0.6-0.6,0.8-0.9c0.1,0.1,0.1,0.1,0.2,0.2l0,0c1.5,1.5,3.3,2.4,5.3,2.7
	c0.4,0.1,0.9,0.1,1.3,0.1c0,0,0,0,0,0c2.6,0,4.8-0.9,6.6-2.8v0c1.8-1.8,2.8-4.1,2.7-6.6c0,0,0,0,0,0v-3.7c0.9,3.1,2.6,5.8,5,8l0,0
	c3.7,3.6,8.4,5.4,14.2,5.4c2.1,0,4-0.2,5.9-0.7l0,0c2.1-0.5,4-1.3,5.7-2.3l0.1-0.1c0,0,0,0,0,0c1.2-0.8,2.2-1.7,2.9-2.8c0,0,0,0,0,0
	c0.9-1.5,1.4-3,1.4-4.6c0,0,0,0,0,0c0-1.1-0.2-2.2-0.6-3.2c0,0-0.1,0.1-0.1,0.1c0,0,0,0,0,0c0,0,0.1-0.1,0.1-0.1c0,0,0,0,0,0
	c2.1-1.5,3.2-3.9,3.2-7v0c0-5.2-1.8-9.5-5.4-13.1l0,0c-3.6-3.7-8.2-5.5-13.8-5.5h0c-4.5,0-8.3,1.2-11.5,3.6
	c-0.1-0.2-0.3-0.4-0.4-0.5l0,0c-1.7-1.9-3.9-2.9-6.6-2.9h0c-0.8,0-1.5,0.1-2.3,0.3c-0.4,0.1-0.9,0.2-1.4,0.5c-0.2,0-0.3,0.1-0.5,0.2
	c-0.3,0.1-0.5,0.2-0.7,0.3c-1.4-0.8-2.9-1.2-4.6-1.2c-0.4,0-0.9,0-1.3,0.1c-2.1,0.3-3.9,1.2-5.4,2.8c0,0-0.1,0.1-0.1,0.1
	c-0.2-0.2-0.5-0.5-1-0.9c-0.8-0.6-1.6-1.1-2.5-1.4C468.8,24.9,467.7,24.7,466.5,24.7z M451.5,31L451.5,31c0.8,0.9,1.3,1.9,1.3,3.1
	v12.8c0,2.6,1.3,4,4,4c2.1,0,3.8-0.8,5.1-2.4V34.1c0-1.2,0.4-2.2,1.2-3l0,0c0.8-0.9,1.9-1.3,3-1.3c1.2,0,2.2,0.4,3,1.3
	c0.9,0.9,1.3,1.9,1.3,3.1v20c0,1.2-0.4,2.2-1.3,3.1c0,0,0,0,0,0c-0.8,0.9-1.8,1.3-3,1.3c-1.2,0-2.2-0.4-3.1-1.3c0,0,0,0,0,0
	c-0.5-0.4-0.8-0.9-1-1.5c-2.4,2-5.2,3-8.6,3c-6.2,0-9.4-3-9.3-9.1V34.1c0-1.2,0.4-2.2,1.3-3.1h0c0.8-0.9,1.9-1.3,3.1-1.3
	C449.6,29.7,450.6,30.1,451.5,31z M487.3,30.1C487.3,30.1,487.3,30.1,487.3,30.1c0.8-0.4,1.5-0.5,2-0.5c1.2,0,2.1,0.4,2.8,1.2
	c0.6,0.7,0.9,1.6,0.9,2.7c0,2.4-1.3,3.9-4,4.2h0c-2.3,0.3-3.9,1.1-4.9,2.3V54c0,1.2-0.4,2.2-1.2,3.1c0,0,0,0,0,0
	c-0.9,0.8-1.9,1.3-3,1.2c-1.2,0-2.2-0.4-3.1-1.3l0,0c-0.8-0.9-1.3-1.9-1.3-3.1V34.1c0-1.2,0.4-2.2,1.2-3.1c0,0,0,0,0,0
	c0.8-0.9,1.8-1.3,3-1.3c1.2,0,2.3,0.4,3.1,1.3c0,0,0,0,0,0c0.5,0.4,0.8,0.9,1,1.5C485,31.3,486.1,30.6,487.3,30.1
	C487.3,30.1,487.3,30.1,487.3,30.1z M493.5,44c0-4.1,1.3-7.5,4-10.3c2.8-2.8,6.2-4.3,10.4-4.3c4.1,0,7.4,1.3,10.1,4
	c1.6,1.6,2.7,3.4,3.3,5.4c0.4,1.3,0.6,2.7,0.6,4.1c0,1-0.2,1.8-0.6,2.4c-0.8,1.1-2.2,1.7-4.4,1.7h-14.3c0.3,1.1,0.9,2,1.8,2.8
	c1.2,1.1,2.8,1.6,4.7,1.6c1.7,0,3.3-0.5,4.9-1.4c0,0,0,0,0,0c0.5-0.3,1.1-0.4,1.7-0.4c1,0,1.8,0.4,2.5,1.1c0,0,0,0,0,0
	c0.7,0.7,1.1,1.5,1.1,2.5c0,1.3-0.6,2.3-1.9,3.1c0,0,0,0,0,0c-2.7,1.5-5.7,2.3-9.1,2.3c-4.3,0-7.8-1.3-10.6-4
	C494.9,51.9,493.5,48.4,493.5,44z M524,56.6C524,56.6,524,56.6,524,56.6L524,56.6L524,56.6z M338.3,29.7c2,0,3.3,0.9,4,2.7l5.5,14.5
	l5.5-14.5c0.7-1.8,2-2.7,4-2.7c1.2,0,2.2,0.4,3.1,1.3h0c0.8,0.8,1.2,1.8,1.2,3c0,0.1,0,0.1,0,0.2l-0.3,1.3c0,0,0,0.1,0,0.1
	l-7.7,18.9c0,0,0,0,0,0c-1.1,2.5-3,3.8-5.6,3.8c-2.8,0-4.7-1.3-5.7-3.8l0,0l-7.7-19c0-0.1,0-0.1-0.1-0.1l-0.3-1.2c0-0.1,0-0.1,0-0.2
	c0-1.2,0.4-2.2,1.2-3C336.1,30.1,337.1,29.7,338.3,29.7z M366.6,33.7c2.8-2.8,6.2-4.3,10.4-4.3c4.1,0,7.4,1.3,10.1,4
	c2.6,2.6,3.9,5.8,3.9,9.5c0.1,2.7-1.6,4.1-5,4.1h-14.3c0.3,1.1,0.9,2,1.8,2.8c1.2,1.1,2.8,1.6,4.7,1.6c1.7,0,3.3-0.5,4.9-1.4
	c0,0,0,0,0,0c0.5-0.3,1.1-0.4,1.7-0.4c1,0,1.8,0.4,2.5,1.1c0,0,0,0,0,0c0.7,0.7,1.1,1.5,1.1,2.5c0,1.3-0.6,2.3-1.9,3.1c0,0,0,0,0,0
	c-2.7,1.5-5.7,2.3-9.1,2.3c-4.3,0-7.8-1.3-10.6-4c-2.8-2.7-4.3-6.3-4.3-10.7C362.6,39.9,364,36.5,366.6,33.7z M401.7,31
	c0.5,0.5,0.8,1,1,1.5c2.3-2,5.2-3,8.5-3c6.3,0,9.4,3.1,9.4,9.2V54c0,1.2-0.4,2.2-1.3,3.1l0,0c-0.8,0.8-1.9,1.3-3.1,1.3
	c-1.2,0-2.2-0.4-3-1.3l0,0c-0.8-0.9-1.2-1.9-1.2-3.1V41.3c0-2.7-1.3-4-4-4c-2.1,0-3.8,0.8-5.1,2.5V54c0,1.2-0.4,2.2-1.2,3.1
	c0,0,0,0,0,0c-0.9,0.8-1.9,1.3-3,1.2c-1.2,0-2.2-0.4-3.1-1.3l0,0c-0.8-0.9-1.3-1.9-1.3-3.1v-20c0-1.2,0.4-2.2,1.2-3.1c0,0,0,0,0,0
	c0.8-0.9,1.8-1.3,3-1.3C399.8,29.7,400.8,30.1,401.7,31z M434.5,23.9c0.8,0.8,1.2,1.9,1.2,3v3.2h1.9c1,0,2,0.4,2.7,1.1l0,0
	c0.7,0.8,1.1,1.7,1.1,2.8c0,1-0.4,1.9-1.1,2.7c-0.8,0.7-1.7,1.1-2.7,1.1h-1.9v11c0,1.3,0.5,2,1.5,2l1.1-0.1c0,0,0.1,0,0.1,0
	c2.3,0.2,3.5,1.4,3.5,3.8c0,1.8-0.9,2.9-2.7,3.5l0,0c-1.1,0.4-2.4,0.6-3.9,0.6c-5.5,0-8.3-2.7-8.3-8V37.8h-0.8c-1.1,0-2-0.4-2.7-1.1
	c0,0,0,0,0,0c-0.8-0.8-1.2-1.6-1.2-2.7c0-1.1,0.4-2,1.2-2.8c0.7-0.7,1.7-1.1,2.7-1.1h0.8v-3.2c0-1.2,0.4-2.2,1.3-3v0
	c0.9-0.9,1.9-1.3,3.1-1.3C432.7,22.6,433.7,23,434.5,23.9z M277.5,16.5L277.5,16.5L277.5,16.5L277.5,16.5z M276.4,24.7
	c0.6-1.5,1.5-2.6,2.7-3.5h0c1.3-0.9,2.8-1.3,4.4-1.3c1.6,0,3.1,0.4,4.4,1.3h0c1.3,0.9,2.2,2.1,2.8,3.5v0l10.5,27.3l0,0
	c0.3,0.6,0.4,1.2,0.4,1.7c0,1.3-0.5,2.4-1.4,3.4h0c-0.9,0.9-2.1,1.4-3.4,1.4c-2.3,0-3.8-1.1-4.4-3.2l-1.3-3.7H276l-1.3,3.6
	c0,0,0,0,0,0c-0.7,2.1-2.2,3.2-4.5,3.2c-1.3,0-2.5-0.5-3.4-1.4c-0.9-0.9-1.4-2.1-1.4-3.4c0-0.1,0-0.1,0-0.2l0.3-1.3
	c0-0.1,0-0.1,0-0.1L276.4,24.7L276.4,24.7z M302.9,44.1c0-4.4,1.2-8,3.5-10.6c2.3-2.6,5.3-4,9-4c2.8,0,5.2,0.9,7.2,2.7v-8.1
	c0-1.2,0.4-2.2,1.3-3.1h0c0.8-0.8,1.8-1.3,3-1.3c1.2,0,2.2,0.4,3,1.3c0.9,0.9,1.3,1.9,1.3,3.1V54c0,1.2-0.4,2.3-1.2,3.1l0,0
	c-0.8,0.9-1.9,1.3-3.1,1.3c-1.2,0-2.2-0.4-3.1-1.2v0c-0.5-0.5-0.8-1-1-1.5c-2.1,2-4.6,2.9-7.5,2.9c-3.7,0-6.7-1.3-8.9-3.9v0
	C304.1,52.1,302.9,48.6,302.9,44.1z M276.9,59.7C276.9,59.7,276.9,59.6,276.9,59.7L276.9,59.7L276.9,59.7z M276.1,61.5
	C276.1,61.5,276.1,61.4,276.1,61.5L276.1,61.5L276.1,61.5z M406.2,59C406.2,59,406.2,59,406.2,59L406.2,59L406.2,59z M313.2,39.5
	c0,0-0.1,0.1-0.1,0.1c-1,1.1-1.5,2.6-1.5,4.4c0,1.8,0.5,3.3,1.5,4.4c0,0,0,0,0,0c1,1.1,2.3,1.7,4,1.7h0c0.9,0,1.8-0.1,2.5-0.4
	c1-0.4,1.8-1,2.4-1.8v-0.4c0-0.1,0-0.2,0-0.2v-6.5c0-0.1,0-0.2,0-0.2v-0.4c-0.7-0.9-1.6-1.6-2.7-1.9c-0.7-0.2-1.4-0.4-2.3-0.4
	c0,0,0,0,0,0C315.5,37.9,314.2,38.4,313.2,39.5z M277.8,42.7c-0.1,0.3-0.1,0.5,0,0.8c0.1,0.3,0.2,0.5,0.5,0.7
	c0.2,0.2,0.5,0.2,0.8,0.2h9.1c0.3,0,0.5-0.1,0.8-0.2c0.2-0.2,0.4-0.4,0.5-0.7c0.1-0.3,0.1-0.5,0-0.8l-4.6-12.9
	c-0.1-0.3-0.3-0.5-0.5-0.6c-0.2-0.2-0.5-0.2-0.7-0.2c-0.3,0-0.5,0.1-0.7,0.2c-0.2,0.2-0.4,0.4-0.5,0.6L277.8,42.7z M371.1,41.4
	c0.1,0.1,0.3,0.2,0.5,0.2h10.9c0.2,0,0.3,0,0.5-0.1s0.2-0.2,0.3-0.4c0.1-0.2,0.1-0.3,0-0.5c-0.2-1.1-0.7-2-1.4-2.8c0,0,0,0-0.1-0.1
	c-1.2-1.3-2.8-1.9-4.8-1.9c-2,0-3.5,0.6-4.7,1.9l0,0c-0.7,0.8-1.2,1.7-1.5,2.8c-0.1,0.2,0,0.3,0,0.5C370.9,41.2,371,41.3,371.1,41.4
	z M502,41.4c0.1,0.1,0.3,0.2,0.5,0.2h10.9c0.2,0,0.3,0,0.5-0.1c0.1-0.1,0.2-0.2,0.3-0.4c0.1-0.2,0.1-0.3,0-0.5
	c-0.2-1.1-0.7-2-1.4-2.8c0,0,0,0-0.1-0.1c-1.2-1.3-2.8-1.9-4.8-1.9c-2,0-3.5,0.6-4.7,1.9l0,0c-0.7,0.8-1.2,1.7-1.5,2.8
	c-0.1,0.2,0,0.3,0,0.5C501.7,41.2,501.9,41.3,502,41.4z"/>
<path class="st1" d="M306.4,33.4c-2.3,2.7-3.5,6.2-3.5,10.6c0,4.5,1.2,8.1,3.5,10.7v0c2.3,2.6,5.3,3.9,8.9,3.9c2.9,0,5.4-1,7.5-2.9
	c0.2,0.6,0.6,1.1,1,1.5v0c0.9,0.8,1.9,1.2,3.1,1.2c1.2,0,2.2-0.4,3.1-1.3l0,0c0.8-0.8,1.2-1.9,1.2-3.1V24.1c0-1.2-0.4-2.2-1.3-3.1
	c-0.8-0.8-1.9-1.3-3-1.3c-1.2,0-2.2,0.4-3,1.3h0c-0.9,0.9-1.3,1.9-1.3,3.1v8.1c-2-1.8-4.4-2.7-7.2-2.7
	C311.7,29.5,308.7,30.8,306.4,33.4z M313.1,39.6c0,0,0.1-0.1,0.1-0.1c1-1.1,2.3-1.7,3.9-1.7c0,0,0,0,0,0c0.8,0,1.6,0.1,2.3,0.4
	c1.1,0.3,2,1,2.7,1.9v0.4c0,0.1,0,0.1,0,0.2v6.5c0,0.1,0,0.2,0,0.2V48c-0.6,0.9-1.5,1.5-2.4,1.8c-0.7,0.3-1.6,0.5-2.5,0.4h0
	c-1.6,0-2.9-0.6-4-1.7c0,0,0,0,0,0c-1-1.1-1.5-2.6-1.5-4.4C311.6,42.2,312.1,40.8,313.1,39.6z M279.2,21.1c-1.3,0.9-2.2,2.1-2.7,3.5
	v0l-10.6,27.3c0,0,0,0.1,0,0.1l-0.3,1.3c0,0.1,0,0.1,0,0.2c0,1.3,0.5,2.4,1.4,3.4c0.9,0.9,2,1.4,3.4,1.4c2.3,0,3.8-1.1,4.5-3.2
	c0,0,0,0,0,0l1.3-3.6h15.1l1.3,3.7c0.7,2.1,2.2,3.2,4.4,3.2c1.3,0,2.5-0.5,3.4-1.4h0c0.9-0.9,1.4-2.1,1.4-3.4c0-0.5-0.1-1.1-0.4-1.7
	l0,0l-10.5-27.3v0c-0.6-1.5-1.5-2.6-2.8-3.5h0c-1.3-0.9-2.8-1.3-4.4-1.3C282,19.8,280.5,20.2,279.2,21.1L279.2,21.1z M277.8,43.5
	c-0.1-0.3-0.1-0.5,0-0.8l4.6-12.9c0.1-0.3,0.2-0.5,0.5-0.6c0.2-0.2,0.5-0.2,0.7-0.2c0.3,0,0.5,0.1,0.7,0.2c0.2,0.2,0.4,0.4,0.5,0.6
	l4.6,12.9c0.1,0.3,0.1,0.5,0,0.8c-0.1,0.3-0.2,0.5-0.5,0.7c-0.2,0.2-0.5,0.2-0.8,0.2H279c-0.3,0-0.5-0.1-0.8-0.2
	C278,44,277.9,43.8,277.8,43.5z M435.8,26.9c0-1.2-0.4-2.2-1.2-3c-0.8-0.9-1.9-1.3-3-1.3c-1.2,0-2.2,0.4-3.1,1.3v0
	c-0.9,0.8-1.3,1.8-1.3,3v3.2h-0.8c-1.1,0-2,0.4-2.7,1.1c-0.8,0.8-1.2,1.7-1.2,2.8c0,1,0.4,1.9,1.2,2.7c0,0,0,0,0,0
	c0.7,0.7,1.7,1.1,2.7,1.1h0.8v12.8c0,5.3,2.8,8,8.3,8c1.5,0,2.8-0.2,3.9-0.6l0,0c1.8-0.6,2.7-1.7,2.7-3.5c0-2.4-1.2-3.7-3.5-3.8
	c0,0-0.1,0-0.1,0l-1.1,0.1c-1-0.1-1.5-0.7-1.5-2v-11h1.9c1,0,2-0.4,2.7-1.1c0.7-0.8,1.1-1.6,1.1-2.7c0-1.1-0.4-2-1.1-2.8l0,0
	c-0.8-0.8-1.7-1.1-2.7-1.1h-1.9V26.9z M402.7,32.5c-0.2-0.6-0.6-1.1-1-1.5c-0.8-0.9-1.9-1.3-3.1-1.3c-1.2,0-2.2,0.4-3,1.3
	c0,0,0,0,0,0c-0.8,0.8-1.2,1.9-1.2,3.1v20c0,1.2,0.4,2.2,1.3,3.1l0,0c0.8,0.8,1.9,1.3,3.1,1.3c1.1,0,2.1-0.4,3-1.2c0,0,0,0,0,0
	c0.8-0.9,1.2-1.9,1.2-3.1V39.8c1.3-1.7,3-2.5,5.1-2.5c2.7,0,4,1.3,4,4V54c0,1.2,0.4,2.2,1.2,3.1l0,0c0.8,0.8,1.8,1.3,3,1.3
	c1.2,0,2.2-0.4,3.1-1.3l0,0c0.8-0.9,1.3-1.9,1.3-3.1V38.7c0-6.1-3.1-9.2-9.4-9.2C407.9,29.5,405,30.5,402.7,32.5z M377,29.5
	c-4.2,0-7.7,1.4-10.4,4.3c-2.7,2.8-4,6.2-4,10.3c0,4.4,1.4,8,4.3,10.7c2.8,2.6,6.3,4,10.6,4c3.4,0,6.4-0.8,9.1-2.3c0,0,0,0,0,0
	c1.3-0.8,1.9-1.8,1.9-3.1c0-1-0.4-1.8-1.1-2.5c0,0,0,0,0,0c-0.7-0.7-1.5-1.1-2.5-1.1c-0.6,0-1.2,0.1-1.7,0.4c0,0,0,0,0,0
	c-1.6,0.9-3.2,1.4-4.9,1.4c-1.9,0-3.5-0.5-4.7-1.6c-0.9-0.8-1.5-1.7-1.8-2.8H386c3.4,0,5-1.4,5-4.1c0-3.7-1.3-6.9-3.9-9.5
	C384.5,30.8,381.1,29.5,377,29.5z M371.6,41.6c-0.2,0-0.3-0.1-0.5-0.2c-0.1-0.1-0.3-0.2-0.3-0.4c-0.1-0.2-0.1-0.3,0-0.5
	c0.3-1.1,0.8-2,1.5-2.8l0,0c1.2-1.3,2.8-1.9,4.7-1.9c2,0,3.6,0.6,4.8,1.9c0,0,0,0,0.1,0.1c0.7,0.8,1.2,1.8,1.4,2.8
	c0,0.2,0,0.3,0,0.5c-0.1,0.2-0.2,0.3-0.3,0.4s-0.3,0.1-0.5,0.1H371.6z M342.2,32.4c-0.7-1.8-2-2.7-4-2.7c-1.2,0-2.2,0.4-3,1.3
	c-0.8,0.8-1.2,1.8-1.2,3c0,0.1,0,0.1,0,0.2l0.3,1.2c0,0,0,0.1,0.1,0.1l7.7,19l0,0c1,2.5,2.9,3.8,5.7,3.8c2.7,0,4.6-1.2,5.6-3.8
	c0,0,0,0,0,0l7.7-18.9c0,0,0-0.1,0-0.1l0.3-1.3c0-0.1,0-0.1,0-0.2c0-1.2-0.4-2.2-1.2-3h0c-0.8-0.8-1.8-1.3-3.1-1.3
	c-2,0-3.3,0.9-4,2.7l-5.5,14.5L342.2,32.4z M497.5,33.7c-2.7,2.8-4,6.2-4,10.3c0,4.4,1.4,8,4.3,10.7c2.8,2.6,6.3,4,10.6,4
	c3.4,0,6.4-0.8,9.1-2.3c0,0,0,0,0,0c1.3-0.8,1.9-1.8,1.9-3.1c0-1-0.4-1.8-1.1-2.5c0,0,0,0,0,0c-0.7-0.7-1.5-1.1-2.5-1.1
	c-0.6,0-1.2,0.1-1.7,0.4c0,0,0,0,0,0c-1.6,0.9-3.2,1.4-4.9,1.4c-1.9,0-3.5-0.5-4.7-1.6c-0.9-0.8-1.5-1.7-1.8-2.8h14.3
	c2.2,0,3.6-0.6,4.4-1.7c0.4-0.6,0.6-1.4,0.6-2.4c0-1.5-0.2-2.8-0.6-4.1c-0.6-2-1.7-3.8-3.3-5.4c-2.7-2.7-6-4-10.1-4
	C503.7,29.5,500.3,30.9,497.5,33.7z M502.5,41.6c-0.2,0-0.3-0.1-0.5-0.2c-0.1-0.1-0.3-0.2-0.3-0.4c-0.1-0.2-0.1-0.3,0-0.5
	c0.3-1.1,0.8-2,1.5-2.8l0,0c1.2-1.3,2.8-1.9,4.7-1.9c2,0,3.6,0.6,4.8,1.9c0,0,0,0,0.1,0.1c0.7,0.8,1.2,1.8,1.4,2.8
	c0,0.2,0,0.3,0,0.5c-0.1,0.2-0.2,0.3-0.3,0.4c-0.1,0.1-0.3,0.1-0.5,0.1H502.5z M487.4,30.1C487.3,30.1,487.3,30.1,487.4,30.1
	C487.3,30.1,487.3,30.1,487.4,30.1c-1.2,0.4-2.3,1.2-3.4,2.3c-0.2-0.5-0.5-1-1-1.5c0,0,0,0,0,0c-0.8-0.8-1.9-1.2-3.1-1.3
	c-1.2,0-2.2,0.4-3,1.3c0,0,0,0,0,0c-0.8,0.8-1.2,1.9-1.2,3.1V54c0,1.2,0.4,2.2,1.3,3.1l0,0c0.8,0.8,1.9,1.3,3.1,1.3
	c1.1,0,2.1-0.4,3-1.2c0,0,0,0,0,0c0.8-0.9,1.2-1.9,1.2-3.1V40.1c1-1.3,2.6-2,4.9-2.3h0c2.7-0.4,4-1.8,4-4.2c0-1.1-0.3-2-0.9-2.7
	c-0.7-0.8-1.6-1.2-2.8-1.2C488.8,29.6,488.2,29.8,487.4,30.1z M451.5,31L451.5,31c-0.9-0.9-1.9-1.3-3-1.3c-1.2,0-2.2,0.4-3.1,1.3h0
	c-0.8,0.8-1.3,1.8-1.3,3.1v15.5c0,6.1,3.1,9.1,9.3,9.1c3.4,0,6.2-1,8.6-3c0.2,0.6,0.5,1.1,1,1.5c0,0,0,0,0,0
	c0.8,0.8,1.9,1.3,3.1,1.3c1.2,0,2.2-0.4,3-1.3c0,0,0,0,0,0c0.8-0.8,1.2-1.9,1.3-3.1v-20c0-1.2-0.4-2.2-1.3-3.1
	c-0.9-0.9-1.9-1.3-3-1.3c-1.2,0-2.2,0.4-3,1.3l0,0c-0.8,0.8-1.2,1.9-1.2,3v14.3c-1.4,1.6-3.1,2.4-5.1,2.4c-2.7,0-4-1.3-4-4V34.1
	C452.7,32.9,452.3,31.9,451.5,31z"/>
<path class="st2" d="M531.8,19h3v0.5h-1.2v2.7H533v-2.7h-1.2V19z M538.5,22.2V20l-1.3,1.9H537l-1.2-1.8v2.2h-0.6V19h0.5l1.5,2.2
	l1.4-2.2h0.5v3.2H538.5z"/>
<g>
	<defs>
		<rect id="SVGID_1_" x="-81.2" y="0.4" width="338" height="80"/>
	</defs>
	<clipPath id="SVGID_2_">
		<use xlink:href="#SVGID_1_"  style="overflow:visible;"/>
	</clipPath>
	<g class="st3">
		<path class="st2" d="M31.4,14.9l-21.1,51h12.8L28,54.1h19.5L52.3,66h12.7l-21.2-51H31.4z M30.4,45.1l7.3-17.8l7.3,17.8H30.4z
			 M86.9,56.7c-1-0.1-2.1-0.2-3.1-0.3c-0.7-0.1-1.4-0.3-2.1-0.7c-0.6-0.3-1.1-0.7-1.6-1.1c-0.4-0.4-0.8-0.8-1.2-1.2
			c-0.3-0.5-0.6-1.1-0.7-1.6c-0.2-1-0.4-2-0.4-2.9c0-1.2-0.2-3-0.3-5.3V14.9H66.7v28.6c0,2.7,0.1,5,0.3,7c0.1,1.6,0.4,3.2,0.9,4.8
			c0.8,2.4,2.2,4.5,4,6.2c1.9,1.7,4.2,2.9,6.7,3.5l1.9,0.4c0.7,0.2,1.4,0.2,2.1,0.3c0.8,0,1.8,0.1,3,0.1h4.4h11.5v-9H91.2
			C89.5,56.9,88,56.8,86.9,56.7z M121.1,15.1c-1.2,0.1-2.4,0.4-3.5,0.7c-1.1,0.3-2.1,0.7-3,1.3c-1,0.6-1.9,1.2-2.7,1.9
			c-5.8,4.9-8.7,11.9-8.6,21.1c0,3.9,0.6,7.8,1.8,11.5c1,3.2,2.7,6.1,5,8.6c0.9,1.1,2,2,3.2,2.8c1.3,0.8,2.7,1.4,4.2,1.8
			c1.8,0.5,3.6,0.8,5.5,1c2.1,0.2,4.4,0.3,7.1,0.3H144v-9.2h-13.7c-2.2,0-4.4-0.2-6.6-0.6c-1.6-0.3-3.1-1-4.5-2
			c-1.2-0.9-2.1-2.2-2.7-3.5c-0.7-1.8-1.1-3.6-1.2-5.5H144v-9.1h-28.6c0-1.3,0.2-2.3,0.3-3.1c0.1-0.7,0.2-1.4,0.4-2.1
			c0.1-0.5,0.3-1.1,0.6-1.6c0.7-1.3,1.6-2.4,2.8-3.2c0.7-0.5,1.5-0.9,2.4-1.2c1.1-0.3,2.2-0.5,3.3-0.6c1.3-0.1,2.9-0.2,4.7-0.2h14.2
			v-9.1h-18.4C124.2,14.9,122.6,15,121.1,15.1z M182.3,14.9l-19.5,25.2l18.4,25.9h14.3l-20.3-25.8l21.3-25.2L182.3,14.9z
			 M151.6,65.9h10.8v-51h-10.8V65.9z M245.3,44.5c-0.6-2-1.6-3.8-3.1-5.2c-1.5-1.4-3.3-2.4-5.3-2.9c-2.9-0.7-5.9-1-8.9-1h-8.3
			c-1.5,0-2.9,0-4.4-0.2c-0.9-0.1-1.8-0.4-2.6-0.9c-0.8-0.5-1.4-1.2-1.8-2c-0.4-0.8-0.6-1.7-0.5-2.7c-0.1-1,0.1-1.9,0.5-2.8
			c0.4-0.9,1.1-1.6,1.9-2c0.8-0.4,1.7-0.6,2.6-0.7c1.1-0.1,2.8-0.2,5.3-0.2h22.8v-9.1h-25.3h-3.9c-1.1,0-2.1,0-2.9,0.2
			c-0.8,0.1-1.5,0.2-2.3,0.4c-0.6,0.1-1.2,0.3-1.8,0.5c-2.7,0.9-5,2.8-6.4,5.2c-1.7,2.6-2.5,5.7-2.5,8.8c0,2.2,0.4,4.3,1.3,6.3
			c0.8,1.9,2,3.6,3.5,4.9c1.5,1.2,3.2,2.1,5.1,2.6c2.5,0.6,5.1,0.8,7.7,0.8h9.4c1.1,0,2.2,0.1,3.3,0.2c0.8,0.1,1.5,0.3,2.3,0.7
			c1,0.5,1.8,1.3,2.4,2.2c0.6,1,0.9,2.1,0.9,3.2c0.1,0.9-0.2,1.9-0.6,2.7c-0.4,0.8-1.1,1.5-1.9,2c-0.8,0.5-1.8,0.8-2.7,0.9
			c-1.6,0.2-3.2,0.3-4.8,0.3H201v9.1h25.6c1.9,0,3.5,0,4.9-0.1c1.4-0.1,2.6-0.2,3.6-0.4c0.9-0.1,1.8-0.3,2.7-0.6
			c0.7-0.3,1.4-0.6,2.1-1c2-1.3,3.7-3.1,4.7-5.3c1.2-2.4,1.8-5,1.8-7.6C246.4,48.8,246,46.6,245.3,44.5z"/>
		<path class="st2" d="M247.6,18.7c0-0.8,0.2-1.5,0.7-2.2c0.4-0.7,1-1.2,1.8-1.5c0.7-0.3,1.5-0.4,2.3-0.2c0.8,0.2,1.5,0.5,2,1.1
			c0.6,0.6,0.9,1.3,1.1,2c0.2,0.8,0.1,1.6-0.2,2.3c-0.3,0.7-0.8,1.3-1.5,1.8c-0.7,0.4-1.4,0.7-2.2,0.7c-1,0-2-0.4-2.8-1.1
			C248.1,20.8,247.6,19.8,247.6,18.7z M248.2,18.7c0,0.7,0.2,1.3,0.6,1.9c0.4,0.6,0.9,1,1.5,1.3s1.3,0.3,2,0.2s1.3-0.5,1.8-0.9
			c0.5-0.5,0.8-1.1,0.9-1.8c0.1-0.7,0.1-1.4-0.2-2c-0.3-0.6-0.7-1.2-1.3-1.5c-0.6-0.4-1.2-0.6-1.9-0.6c-0.9,0-1.8,0.4-2.4,1
			C248.5,17,248.2,17.8,248.2,18.7L248.2,18.7z M251.5,19.2h-0.8v1.7h-0.6v-4.4h1.8c0.2,0,0.4,0,0.5,0.1c0.2,0.1,0.3,0.2,0.5,0.3
			c0.1,0.1,0.2,0.3,0.3,0.4c0.1,0.2,0.1,0.4,0.1,0.5c0,0.3-0.1,0.6-0.3,0.9c-0.2,0.2-0.5,0.4-0.8,0.5l1.2,1.7h-0.7L251.5,19.2z
			 M250.6,17v1.7h1.3c0.2,0,0.4-0.1,0.6-0.3c0.2-0.2,0.3-0.4,0.3-0.6c0-0.2-0.1-0.4-0.3-0.6c-0.2-0.2-0.4-0.3-0.6-0.3H250.6z"/>
	</g>
</g>
</svg>
