<?xml version="1.0" encoding="UTF-8"?><svg id="Layer_1" xmlns="http://www.w3.org/2000/svg" xmlns:xlink="http://www.w3.org/1999/xlink" viewBox="0 0 1317.03 578.65"><defs><style>.cls-1{fill:none;}.cls-2{fill:#943c8d;}.cls-3{fill:#eb662b;}.cls-4{fill:#8e88c0;}.cls-5{fill:#048b38;}.cls-6{isolation:isolate;}.cls-7{fill:#3fa435;}.cls-8{clip-path:url(#clippath-1);}.cls-9{clip-path:url(#clippath-2);}.cls-10{fill:#ec6f37;}.cls-11{fill:#d70366;}.cls-12{fill:#009ee2;}.cls-13{clip-path:url(#clippath);}</style><clipPath id="clippath"><rect class="cls-1" x="11.91" y="16.81" width="1296.56" height="550.12"/></clipPath><clipPath id="clippath-1"><rect class="cls-1" x="-33670.56" y="-27279.32" width="65535" height="65535"/></clipPath><clipPath id="clippath-2"><rect class="cls-1" x="19.13" y="20.12" width="1286.03" height="454.46"/></clipPath></defs><g class="cls-13"><g class="cls-6"><g class="cls-8"><g class="cls-9"><path d="M321.74,346.53L210.43,40.39l-105.13,6.39L19.13,359.31l97.86,8.16,13.66-60.83,79.78-2.87,19.62,62.59,91.69-19.84ZM195.67,248.67l-53.34.66,19.17-108.22,34.16,107.56ZM403.72,361.3c-17.41-59.51-23.8-131.14-26.45-183.59-2.86-56.2-2.2-99.84,3.09-151.41l-80.01-.66c-3.75,55.32-6.17,109.76-3.08,171.69,2.86,52.68,10.14,116.81,25.12,173.9l81.33-9.92ZM512.82,355.57c-17.41-59.51-23.8-131.14-26.45-183.59-2.86-56.2-2.2-99.84,3.09-151.42l-80.01-.66c-3.75,55.32-6.17,109.76-3.08,171.69,2.86,52.68,10.14,116.81,25.12,173.9l81.33-9.92Z"/><path class="cls-7" d="M678.56,358.87c0-104.03-134.44-114.17-134.44-149.21,0-7.93,6.83-11.02,14.77-11.02,12.34,0,20.28,7.49,26.67,29.31l77.14-24.02c-10.14-39.45-37.25-73.83-107.33-73.83s-114.61,31.52-114.61,89.26c0,96.31,131.58,115.05,131.58,145.24,0,10.58-17.41,13.66-26.23,13.66-12.34,0-26.67-7.49-33.5-27.55l-83.09,9.26c7.27,59.95,52.68,97.86,125.19,97.86,64.8,0,123.87-29.75,123.87-98.96"/><path class="cls-12" d="M857.75,355.57c0-57.08-44.52-90.14-99.4-90.14-49.37,0-100.94,26.45-100.94,90.14s49.81,92.79,99.4,92.79,100.94-32.18,100.94-92.79M814.33,364.6c0,27.55-15.87,50.25-45.18,50.25-26.89,0-43.2-18.73-43.2-47.39s16.31-47.83,45.84-47.83c26.67.22,42.54,17.85,42.54,44.96"/><path class="cls-2" d="M994.4,227.07c-10.58-6.83-22.48-10.58-33.72-10.14-31.08,1.54-40.55,37.69-42.98,54.22l-11.24-52.9-60.17,9.7,23.58,182.05,68.32-6.83c-4.63-27.77-9.48-52.9-10.36-72.73-1.76-35.26,9.26-58.41,34.6-59.73,11.46-.66,21.38,3.31,28.21,10.14l3.75-53.78Z"/><path class="cls-11" d="M1115.4,389.95c0-3.09,0-6.17-.22-9.26l-36.15-.66c.22,27.11-9.48,32.62-17.85,32.4-13.44-.22-16.53-13.66-16.31-29.97.22-14.33,3.31-29.75,4.19-37.03l57.08.66.88-50.03-49.59-.88c1.32-9.04,4.41-61.05,7.27-76.26l-55.98,4.63c-3.31,22.26-5.73,58.85-7.71,69.43l-36.15,3.08-4.85,43.86,31.52,3.09c-2.2,11.46-3.75,24.46-3.97,36.37-.66,41.21,13.89,81.55,57.08,82.21,37.25.88,69.87-27.55,70.75-71.63"/><path class="cls-10" d="M1273.42,357.11c-9.04-64.14-85.74-44.52-88.6-64.36-.44-3.53,1.76-7.93,10.58-9.26,12.12-1.76,31.74,2.87,45.4,12.34l16.75-40.77c-25.35-15.43-48.05-21.38-77.8-17.19-39.67,5.51-69.65,26.01-63.92,65.68,8.6,60.39,82.21,46.28,85.3,68.98.66,5.07-2.86,6.83-9.04,7.71-24.46,3.53-48.27-10.8-56.86-15.65l-12.56,43.64c21.38,14.55,49.59,22.26,84.85,17.19,45.18-6.39,71.41-29.75,65.9-68.32"/><path class="cls-5" d="M942.16,447.25c0-15.21-12.78-27.33-28.43-27.33s-28.43,12.34-28.43,27.33,12.78,27.33,28.43,27.33,28.43-12.34,28.43-27.33"/><path class="cls-4" d="M792.51,385.32c0-10.8-9.04-19.62-20.28-19.62s-20.28,8.82-20.28,19.62,9.04,19.62,20.28,19.62,20.28-8.82,20.28-19.62"/><path class="cls-3" d="M677.46,235.89c0-10.58-8.82-19.17-19.84-19.17s-19.84,8.6-19.84,19.17,8.82,19.18,19.84,19.18,19.84-8.6,19.84-19.18"/><path class="cls-2" d="M1305.16,290.33c0-12.56-10.58-22.7-23.58-22.7s-23.58,10.14-23.58,22.7,10.58,22.7,23.58,22.7,23.58-10.14,23.58-22.7"/></g><path class="cls-2" d="M46.9,440.64c-.66,1.98-1.54,3.75-2.65,5.07-1.1,1.32-2.42,2.42-4.19,3.31-1.76.88-3.75,1.54-6.39,1.76-2.64.44-5.07.22-7.27-.44-2.2-.66-4.19-1.76-5.73-3.31-1.76-1.54-3.09-3.53-4.19-5.73s-1.76-4.85-2.2-7.71c-.22-2.2-.22-4.41,0-6.61.44-2.2,1.1-4.41,2.42-6.17,1.1-1.98,2.64-3.53,4.85-5.07,1.98-1.32,4.41-2.2,7.27-2.65,2.43-.44,4.41-.44,6.17,0,1.76.44,3.53.88,4.85,1.76,1.54.88,2.65,1.98,3.75,3.53,1.1,1.32,1.98,3.09,2.65,4.85l-9.04,2.87c-1.76-2.87-3.97-3.97-6.39-3.75-2.2.22-3.75,1.32-4.63,3.09-.88,1.76-1.1,3.97-.66,7.05.22,1.54.66,2.65,1.1,3.97.44,1.1,1.1,2.2,1.76,2.86.66.66,1.54,1.32,2.2,1.76.88.44,1.76.44,2.65.44,1.76-.22,2.86-1.1,3.97-2.42.88-1.54,1.32-3.08,1.32-5.29l9.48.22c-.22,2.2-.66,4.63-1.1,6.61"/><path class="cls-2" d="M68.06,425.87c-.88-.44-1.76-.66-2.64-.66-.66,0-1.32.22-1.76.66-.44.44-.88.66-1.1,1.1-.22.44-.44.88-.66,1.32v1.54l7.49-1.98c0-.66-.44-1.32-1.32-1.98M74.67,442.84c-2.42,1.54-4.85,2.42-7.49,2.65-1.98.22-3.75.22-5.51-.22-1.76-.44-3.53-1.1-5.07-1.98-1.54-.88-2.64-2.2-3.75-3.75-1.1-1.54-1.76-3.53-1.98-5.73-.22-2.2,0-4.19.44-5.95.66-1.76,1.54-3.53,2.86-4.85,1.32-1.32,2.64-2.42,4.41-3.31,1.76-.88,3.75-1.32,5.95-1.76,1.98-.22,3.75-.22,5.29.22,1.54.44,3.09.88,4.19,1.76,1.32.88,2.2,2.2,3.08,3.53.88,1.32,1.32,3.09,1.54,5.07v1.98l-14.99,3.97c.22.66.66,1.1,1.54,1.54.88.44,1.76.44,2.86.22.66,0,1.32-.22,1.98-.44.66-.22,1.54-.44,2.2-.88.66-.44,1.32-.66,1.98-1.1s1.1-.88,1.54-1.32l4.85,4.41c-1.54,2.42-3.53,4.41-5.95,5.95"/><path class="cls-2" d="M84.14,435.79c-.66-3.53-1.1-7.05-1.32-10.58-.22-3.31-.44-6.61-.66-9.92v-9.92l9.48-.44c-.22,2.87-.22,5.73-.22,8.6s.22,5.73.44,8.6c.44,3.75.88,7.49,1.54,11.46.66,3.97,1.54,7.71,2.86,11.24l-9.7,1.54c-1.1-3.53-1.98-7.05-2.42-10.58"/><path class="cls-2" d="M115,421.69c-.66-.66-1.54-.88-2.42-.66-.66,0-1.32.22-1.76.44-.44.22-.88.66-1.1,1.1-.22.44-.44.88-.66,1.32-.22.44-.22.88-.22,1.54l7.71-1.54c-.22-1.1-.88-1.76-1.54-2.2M120.73,438.66c-2.42,1.32-5.07,2.2-7.71,2.42-1.98.22-3.75,0-5.51-.44-1.76-.44-3.53-1.1-4.85-2.2-1.54-1.1-2.64-2.42-3.53-3.97-.88-1.76-1.54-3.53-1.76-5.95-.22-2.2,0-4.19.66-5.95.66-1.76,1.76-3.31,3.09-4.63,1.32-1.32,2.87-2.42,4.63-3.09,1.76-.66,3.75-1.32,5.95-1.32,1.98-.22,3.75,0,5.29.44,1.54.44,3.09,1.1,4.19,1.98s2.2,2.2,2.86,3.75c.66,1.54,1.1,3.31,1.32,5.29v1.98l-15.21,3.31c.22.66.66,1.1,1.54,1.54.66.44,1.76.44,2.86.44.66,0,1.32-.22,1.98-.44.66-.22,1.54-.44,2.2-.66.66-.44,1.32-.66,1.98-1.1.66-.44,1.1-.88,1.54-1.32l4.63,4.63c-1.54,2.2-3.75,3.97-6.17,5.29"/><path class="cls-2" d="M148.72,425.87c-.22-.66-.66-1.1-1.1-1.76-.44-.44-.88-.88-1.54-1.32-.66-.22-1.32-.44-2.2-.44-1.54,0-2.65.44-3.53,1.54-.88,1.1-1.32,2.2-1.1,3.53,0,.66.22,1.32.44,1.76.22.66.66,1.1,1.1,1.54.44.44.88.88,1.54,1.1.66.22,1.1.44,1.76.44,1.32,0,2.65-.44,3.53-1.32.88-.88,1.54-1.98,1.32-3.31.22-.44,0-1.1-.22-1.76M158.2,431.6c-.44,1.54-1.32,3.09-2.42,4.41-1.1,1.32-2.43,2.2-3.97,2.87-1.54.66-3.53,1.1-5.73,1.1-.88,0-1.54,0-2.42-.22-.88-.22-1.76-.44-2.65-.66-.88-.22-1.54-.66-2.2-1.1s-1.1-.88-1.54-1.32v5.73h-7.49c-.22-3.75-.22-7.05-.22-10.36v-9.7c0-3.31,0-6.39.22-9.7.22-3.31.22-6.83.44-10.36l10.14.44c0,1.1-.22,2.2-.22,3.53s-.22,2.42-.22,3.53c-.22,1.1-.22,2.42-.22,3.53s-.22,2.2-.22,3.09c.44-.44,1.32-1.1,2.2-1.32,1.1-.44,2.2-.66,3.53-.66,1.98,0,3.75.22,5.51.66,1.76.66,3.09,1.32,4.41,2.42,1.32,1.1,2.2,2.42,2.87,3.97.88,1.54,1.1,3.31,1.32,5.29-.22,1.32-.44,3.31-1.1,4.85"/><path class="cls-2" d="M181.12,418.6c-.66-.22-1.76-.44-2.87-.44-.88,0-1.54.22-2.2.66s-1.1,1.1-1.54,1.98c-.44.88-.88,1.54-1.1,2.42-.22.88-.44,1.76-.44,2.42v3.31c0,.88,0,1.76.22,2.64,0,.88.22,1.76.22,2.87.22,1.1.22,2.2.44,3.75l-10.36.44-1.98-27.77,9.26-.88,1.1,8.15c.22-.66.44-1.32.66-2.2.22-.88.66-1.76,1.32-2.65.66-.88,1.32-1.54,1.98-2.2.66-.66,1.76-.88,2.65-.88,1.1,0,1.98.22,2.65.44.88.22,1.76.88,2.64,1.32l-1.1,8.16c-.22-.66-.88-1.1-1.54-1.54"/><path class="cls-2" d="M205.14,422.79c-.88-1.1-1.98-1.76-3.53-1.76-1.32,0-2.65.44-3.75,1.32-1.1.88-1.54,2.2-1.76,3.75,0,1.54.22,2.87,1.32,3.75.88,1.1,2.2,1.54,3.53,1.54,1.54,0,2.86-.22,3.75-1.1.88-.88,1.54-1.98,1.54-3.53s-.22-2.87-1.1-3.97M216.6,427.64c-.22,4.63-.44,9.26-.66,13.89l-9.92-.22.22-2.65c-.22.22-.66.66-1.32.88-.44.22-1.1.44-1.76.66-.66.22-1.32.44-1.98.44h-1.76c-1.98,0-3.97-.44-5.51-1.1-1.76-.66-3.09-1.76-4.19-2.87-1.1-1.32-1.98-2.65-2.65-4.41-.66-1.76-.88-3.53-.66-5.73,0-2.42.66-4.41,1.54-6.17.88-1.76,1.98-3.08,3.31-4.19,1.32-1.1,2.86-1.98,4.41-2.42,1.76-.44,3.31-.66,5.07-.66,1.98,0,3.53.44,4.63.88,1.32.66,2.2,1.32,2.87,1.98l.22-3.09,8.82.44c-.22,4.85-.44,9.48-.66,14.33"/><path class="cls-2" d="M245.48,438.66c-.88,1.54-1.76,2.65-3.09,3.75-1.32.88-2.42,1.76-3.97,2.2-1.54.44-2.86.66-4.41.44-1.98-.22-3.75-.66-5.07-1.76s-2.42-1.98-3.09-3.31c-.66-1.32-1.1-2.87-1.32-4.63-.22-1.54-.22-3.31,0-5.07.22-2.2.66-4.19,1.32-6.17l-5.51-.88,1.54-7.27h6.39c0-.44.22-1.1.44-1.98.22-.88.44-1.98.66-3.08.22-1.1.44-2.2.66-3.31.22-1.1.44-2.2.66-3.31h9.92c-.22.66-.44,1.54-.66,2.87-.22,1.32-.44,2.65-.66,3.97-.22,1.32-.44,2.65-.66,3.75-.22,1.1-.44,1.98-.44,2.2l8.82.88-.88,8.38-10.14-.88c-.22.66-.44,1.54-.66,2.65-.22,1.1-.44,2.42-.66,3.53v1.98c0,.66.22,1.1.22,1.54.22.44.44.88.88,1.1.44.22.88.44,1.32.66h1.1c.44-.22.88-.44,1.1-.66.44-.44.66-.88.88-1.54.22-.66.44-1.54.44-2.86l6.39.66v1.76c-.22,1.32-.66,2.87-1.54,4.41"/><path class="cls-2" d="M262.23,418.16c-1.1.88-2.42,1.32-4.19,1.1-1.54-.22-2.65-.88-3.75-1.76-.88-1.1-1.32-2.42-1.1-4.19.22-1.54.88-2.87,1.98-3.53,1.1-.88,2.43-1.1,4.19-.88,1.54.22,2.65.88,3.75,1.76,1.1.88,1.32,2.2,1.1,3.97-.22,1.32-.88,2.65-1.98,3.53M261.57,427.42c-.44,1.76-.66,3.53-1.1,5.29-.22,1.98-.44,4.19-.66,6.17-.22,1.98-.22,4.19-.22,6.61l-9.92-1.32c0-2.2.22-4.19.22-6.17.22-1.98.44-4.19.66-6.17.22-1.98.66-3.75,1.1-5.73.44-1.76.88-3.75,1.54-5.73l9.92,1.54c-.44,1.98-1.1,3.75-1.54,5.51"/><path class="cls-2" d="M294.63,441.52c-.22,1.1-.66,2.42-.88,3.75-.22,1.32-.66,2.42-.88,3.53-.22,1.1-.44,1.98-.66,2.65l-10.14-1.76c.44-2.42,1.1-4.63,1.54-6.61.66-1.98,1.1-3.97,1.32-5.51.44-1.76.44-3.53.22-4.85-.22-1.32-.88-2.2-1.98-2.42-1.32-.22-2.42,0-3.31.44-1.1.66-1.76,1.32-2.42,2.2,0,.44-.22,1.32-.22,2.42-.22,1.1-.22,2.42-.44,3.75-.22,1.54-.44,3.08-.66,4.63-.22,1.76-.44,3.31-.66,5.07l-9.92-1.54c.44-2.42.66-4.63,1.1-6.61.22-1.98.66-3.97.88-5.95.22-1.98.66-4.19.88-6.17.22-2.2.66-4.63.88-7.27l9.7,1.54-.44,2.65c.66-.66,1.76-1.1,3.09-1.54,1.32-.44,2.65-.44,4.41-.22,2.43.44,4.19,1.32,5.73,2.42,1.54,1.1,2.42,2.42,3.09,3.97.66,1.54,1.1,3.08,1.1,4.63s0,3.08-.22,4.41c-.66.44-.88,1.32-1.1,2.42"/><path class="cls-2" d="M316.89,438.22c-.44-1.32-1.54-1.98-3.08-2.43-.66-.22-1.32-.22-1.76,0-.44.22-1.1.44-1.76.66-.66.44-1.1.88-1.54,1.54-.44.66-.66,1.32-.88,2.2-.22.66-.22,1.1,0,1.76.22.66.44,1.32.66,1.76.22.66.66,1.1,1.1,1.54.44.44,1.1.66,1.76.88,1.1.22,2.2,0,3.53-.66,1.1-.88,1.98-1.76,2.42-3.31v-.22c.22-1.32.22-2.42-.44-3.75M328.79,434.03c-.22,1.1-.66,2.43-.88,3.53-.22,1.32-.66,2.65-1.1,3.75-.22,1.32-.66,2.42-.88,3.75-.66,2.87-1.54,5.51-2.42,8.38-.44,1.98-1.32,3.53-2.2,4.85-1.1,1.32-2.42,2.42-3.97,3.31s-3.31,1.32-5.07,1.32c-1.98.22-3.97,0-6.17-.66-2.65-.66-4.85-1.76-6.39-3.08-1.54-1.32-2.86-2.87-3.75-4.41l4.85-4.41c.22.22.44.66.88.88.44.44.88.88,1.54,1.32.66.44,1.32.88,2.2,1.54.88.44,1.76.88,2.86,1.1.88.22,1.76.22,2.65.22.88-.22,1.54-.44,1.98-.66.66-.44,1.1-.88,1.32-1.32.44-.44.66-.88.66-1.32-.88.66-1.76.88-2.86,1.1-1.1.22-2.43.22-3.97-.22-1.98-.44-3.75-1.32-5.07-2.21-1.32-1.1-2.64-2.2-3.31-3.53-.88-1.32-1.32-2.86-1.54-4.63-.22-1.76-.22-3.31.22-5.07.44-1.76,1.1-3.31,2.2-4.85s2.2-2.65,3.75-3.75c1.54-.88,3.09-1.54,5.07-1.76,1.76-.22,3.97-.22,6.17.44,1.54.44,2.87.88,3.97,1.54,1.1.66,1.98,1.54,2.65,2.2l.88-2.42,6.83,1.76c-.44,1.1-.66,2.2-1.1,3.31"/><path class="cls-2" d="M361.85,453.86c-.44-1.32-1.32-2.2-2.86-2.86-1.32-.44-2.65-.44-3.75,0-1.32.44-2.2,1.54-2.86,3.08-.44,1.32-.44,2.65,0,3.97.66,1.32,1.54,1.98,2.86,2.65,1.32.44,2.65.44,3.97,0,1.1-.44,1.98-1.54,2.42-2.87.66-1.32.66-2.65.22-3.97M371.33,461.8c-1.54,4.41-3.31,8.82-4.85,13l-9.26-3.08.88-2.42c-.44.22-.88.44-1.54.44s-1.1.22-1.76,0c-.66,0-1.32,0-1.98-.22-.66-.22-1.32-.22-1.76-.44-1.98-.66-3.75-1.54-5.07-2.87-1.32-1.1-2.42-2.42-3.09-3.97-.66-1.54-1.1-3.09-1.1-4.85s.22-3.75,1.1-5.73c.88-2.2,1.98-3.97,3.31-5.51,1.32-1.32,2.87-2.42,4.41-3.09,1.54-.66,3.31-1.1,5.07-1.1s3.31.22,5.07.88c1.76.66,3.09,1.54,4.19,2.42,1.1.88,1.76,1.76,2.2,2.65l1.1-2.87,8.38,3.09c-1.98,4.85-3.53,9.26-5.29,13.66"/><path class="cls-2" d="M374.41,468.63c1.1-3.53,2.42-6.83,3.97-10.14,1.32-3.08,2.65-5.95,4.19-9.04,1.54-2.86,3.09-5.95,4.85-8.82l8.6,4.19c-1.54,2.42-2.87,4.85-4.19,7.49-1.32,2.65-2.65,5.29-3.75,7.71-1.54,3.31-2.86,7.05-4.19,10.8-1.32,3.75-2.2,7.49-2.86,11.24l-9.26-3.08c.44-3.53,1.32-6.83,2.65-10.36"/><path class="cls-2" d="M388.52,474.8c1.32-3.53,2.64-6.83,4.19-9.92,1.32-3.09,2.86-5.95,4.41-8.82,1.54-2.87,3.31-5.73,5.07-8.6l8.38,4.41c-1.54,2.42-3.09,4.85-4.41,7.27-1.32,2.64-2.65,5.07-3.97,7.71-1.54,3.31-3.09,6.83-4.41,10.58-1.32,3.75-2.43,7.27-3.31,11.02l-9.04-3.53c.66-3.31,1.76-6.83,3.09-10.14"/><path class="cls-2" d="M435.46,499.49c-1.32.88-2.65,1.54-3.97,1.76-1.32.44-2.86.44-4.19.22-1.32-.22-2.86-.44-3.97-1.1-2.2-1.1-4.19-2.2-5.29-3.75-1.32-1.54-2.2-3.09-2.64-4.63-.44-1.76-.66-3.53-.44-5.29.22-1.76.66-3.53,1.54-5.51.88-1.98,1.98-3.75,3.31-5.07,1.32-1.54,2.86-2.42,4.41-3.09,1.54-.66,3.31-.88,5.29-.88s3.97.66,5.95,1.54c3.31,1.54,5.51,3.53,6.83,6.17,1.1,2.65,1.54,5.51.88,8.6l-7.93-1.54c.22-.88,0-1.98-.22-2.86-.44-1.1-1.32-1.98-2.65-2.42-.44-.22-1.1-.44-1.54-.44-.66,0-1.32.22-1.76.44-.66.22-1.1.66-1.76,1.1-.66.44-1.1,1.32-1.54,2.2-.66,1.76-.88,3.31-.66,4.63.44,1.32,1.32,2.42,2.64,3.09.44.22.66.22,1.32.22s1.1,0,1.76-.22c.66-.22,1.1-.44,1.76-.66.66-.22.88-.66,1.32-1.1l5.95,5.07c-1.98,1.54-3.09,2.64-4.41,3.53"/><path class="cls-2" d="M466.98,509.19c-.44.88-.88,1.76-1.32,2.65-.44.88-1.1,1.76-1.54,2.65-.44.88-1.1,1.54-1.54,2.2l-9.04-4.41c.44-.66.88-1.32,1.32-1.98.44-.88.88-1.54,1.32-2.42.44-.88.88-1.76,1.32-2.64.44-.88.88-1.76,1.1-2.65.66-1.76,1.1-3.31.88-4.19-.22-1.1-.88-1.76-1.98-2.2-.88-.44-1.98-.44-2.65.22-.88.44-1.54,1.32-1.98,2.42-.44,1.1-.88,2.2-1.32,3.09-.44.88-.66,1.76-1.1,2.65-.44.88-.66,1.76-1.1,2.64-.44.88-.88,1.98-1.32,3.09l-9.7-4.41c1.32-3.09,2.65-6.17,3.97-8.82,1.1-2.87,2.43-5.51,3.53-8.38,1.1-2.64,2.2-5.51,3.31-8.15s2.2-5.73,3.53-8.82l9.7,4.19c-.44.88-.88,1.98-1.32,3.09-.44,1.1-.88,2.42-1.32,3.53-.44,1.32-1.1,2.42-1.54,3.75-.44,1.32-.88,2.2-1.32,3.09.66-.44,1.76-.66,2.86-.88,1.32,0,2.42.22,3.53.66,1.98.88,3.53,1.98,4.63,3.09,1.1,1.32,1.76,2.65,1.98,4.19.22,1.54.22,3.31-.22,5.07-.44,1.76-.88,3.75-1.76,5.73-.22.44-.66,1.32-.88,1.98"/><path class="cls-2" d="M486.59,496.18c-1.32.66-2.64.66-4.41.22-1.32-.44-2.42-1.32-3.09-2.65-.66-1.32-.88-2.65-.22-4.41.44-1.54,1.54-2.42,2.65-3.09,1.32-.44,2.65-.66,4.19,0,1.32.44,2.42,1.32,3.31,2.42.66,1.1.88,2.42.22,3.97-.44,1.54-1.32,2.65-2.65,3.53M484.17,505c-.66,1.54-1.54,3.31-1.98,4.85-.66,1.98-1.32,3.97-1.98,5.95-.66,1.98-1.1,4.19-1.76,6.39l-9.48-3.53c.44-1.98,1.1-4.19,1.54-5.95.66-1.98,1.1-3.97,1.98-5.73.66-1.76,1.32-3.53,2.2-5.29l2.65-5.29,9.48,3.75c-1.1,1.54-1.98,3.09-2.64,4.85"/><path class="cls-2" d="M487.26,516.68c.88-3.53,1.98-7.05,3.09-10.36,1.1-3.08,2.2-6.17,3.53-9.26,1.32-3.08,2.65-6.17,4.19-9.04l8.82,3.53c-1.32,2.43-2.65,5.07-3.75,7.71-1.1,2.65-2.2,5.29-3.09,8.15-1.1,3.53-2.2,7.05-3.31,11.02-1.1,3.97-1.76,7.71-1.98,11.24l-9.48-2.42c.44-3.53,1.1-7.05,1.98-10.58"/><path class="cls-2" d="M520.98,518.22c-.44-1.1-1.54-1.98-3.09-2.42-1.32-.44-2.42-.22-3.75.66-1.32.66-1.98,1.98-2.42,3.53-.44,1.54-.44,3.09.44,4.19.66,1.32,1.54,1.98,2.87,2.42.66.22,1.1.22,1.76,0,.66,0,1.1-.44,1.76-.66.66-.44,1.1-.88,1.54-1.32.44-.66.88-1.32,1.1-1.98.22-1.76.22-3.31-.22-4.41M529.13,531.45c-.88,2.65-1.76,5.73-2.87,8.82l-8.82-2.65,1.32-4.41c-.44.22-1.1.44-1.76.44h-1.98c-.66,0-1.32,0-1.98-.22-.66-.22-1.1-.22-1.54-.44-1.98-.66-3.75-1.32-5.07-2.2-1.54-.88-2.65-2.2-3.53-3.53-.88-1.32-1.32-2.87-1.54-4.63-.22-1.76,0-3.75.66-5.95.66-2.2,1.54-3.75,2.64-5.29,1.1-1.32,2.42-2.42,3.97-3.31,1.54-.88,3.09-1.1,4.63-1.32,1.76-.22,3.31,0,5.07.44,1.32.44,2.43.88,3.31,1.54.88.66,1.76,1.32,2.2,2.2.44-1.32.88-2.87,1.32-4.85.66-1.98,1.1-4.19,1.54-6.39l10.14,2.2c-.66,3.97-1.32,7.71-2.2,11.02-.88,3.53-1.76,6.83-2.64,10.14-1.1,2.87-1.98,5.51-2.86,8.38"/><path class="cls-2" d="M555.58,523.51c-.66-.44-1.54-.88-2.65-1.1-.66-.22-1.54,0-2.2.22-.66.44-1.32.88-1.98,1.54-.66.66-1.1,1.32-1.54,2.2-.44.88-.66,1.54-.88,2.2-.22,1.32-.66,2.42-.66,3.09-.22.88-.22,1.76-.44,2.65-.22.88-.22,1.76-.44,2.86,0,1.1-.22,2.2-.44,3.75l-10.14-2.2,4.85-27.33,9.26,1.32-.88,8.15c.22-.44.66-1.1,1.1-1.98.44-.88,1.1-1.54,1.76-2.2.66-.66,1.54-1.32,2.42-1.54.88-.22,1.76-.44,2.87-.22.88.22,1.76.66,2.64,1.1.66.44,1.54,1.1,2.2,1.98l-2.87,7.71c-.88-1.32-1.54-1.76-1.98-2.2"/><path class="cls-2" d="M578.06,529.46c-.66-.66-1.32-1.1-2.2-1.32-.66-.22-1.32-.22-1.76,0-.44.22-1.1.44-1.32.66-.44.22-.66.66-.88,1.1-.22.44-.44.88-.44,1.32l7.71.44c-.22-.66-.44-1.54-1.1-2.2M579.16,547.31c-2.65.66-5.51.66-7.93.22-1.98-.22-3.75-.88-5.29-1.98-1.54-.88-3.09-1.98-4.19-3.53-1.1-1.32-1.98-2.87-2.43-4.85-.44-1.76-.44-3.97,0-6.17.44-2.2,1.1-3.97,2.43-5.51,1.1-1.54,2.42-2.87,4.19-3.75,1.54-.88,3.31-1.54,5.29-1.76,1.98-.22,3.97-.22,6.17.22,1.76.44,3.53,1.1,4.85,1.76,1.32.88,2.64,1.98,3.53,3.09.88,1.32,1.54,2.64,1.76,4.41.22,1.54.22,3.53-.22,5.29-.22.66-.22,1.1-.44,1.76l-15.43-.88c0,.66.44,1.32.88,1.98.66.66,1.54,1.1,2.64,1.32.66.22,1.32.22,1.98.22h2.2c.66-.22,1.54-.22,2.2-.44.66-.22,1.32-.44,1.98-.88l3.31,5.73c-2.42,1.98-4.85,3.09-7.49,3.75"/><path class="cls-2" d="M619.06,545.99c-.22,1.32-.44,2.42-.66,3.75-.22,1.32-.44,2.42-.66,3.53-.22,1.1-.44,1.98-.66,2.65l-10.14-1.54c.44-2.42.88-4.63,1.32-6.83.44-1.98.88-3.97,1.1-5.51.22-1.98.22-3.53.22-4.85-.22-1.32-.88-2.2-2.2-2.2-1.32-.22-2.42,0-3.31.66-1.1.66-1.76,1.32-2.43,2.2,0,.44,0,1.32-.22,2.42-.22,1.1-.22,2.42-.44,3.97-.22,1.54-.22,3.08-.44,4.63-.22,1.76-.44,3.31-.66,5.07l-10.14-1.32c.22-2.43.44-4.63.88-6.61.22-1.98.44-3.97.66-6.17.22-1.98.44-4.19.66-6.39.22-2.2.44-4.63.66-7.27l9.7,1.32-.22,2.65c.66-.66,1.76-1.32,3.09-1.76,1.32-.44,2.64-.66,4.41-.44,2.42.44,4.41,1.1,5.73,2.2,1.54,1.1,2.42,2.42,3.31,3.75.66,1.54,1.1,3.08,1.32,4.63.22,1.54,0,3.09-.22,4.41-.22.88-.44,1.98-.66,3.08"/><path class="cls-2" d="M634.04,556.57c-.44,1.1-1.32,1.98-2.2,2.65-1.1.88-2.2,1.54-3.75,1.98-1.54.44-3.31.66-5.51.66l-.66-3.53h1.1c.44,0,.88,0,1.32-.22.44,0,.88-.22,1.32-.44.44-.22.66-.22.66-.66-1.76-.22-3.09-.88-3.97-2.2-.88-1.1-1.1-2.65-.88-4.41,0-.88.44-1.54.66-2.2.44-.66.88-1.32,1.54-1.76.66-.44,1.32-.88,2.2-1.1.88-.22,1.98-.44,2.86-.22,1.1.22,1.98.44,2.87.88.88.44,1.54,1.1,1.76,1.76.44.88.66,1.54.88,2.65.22.88.22,1.98,0,2.87.44,1.32.22,2.42-.22,3.31"/><path class="cls-2" d="M671.95,543.57c-.66-1.1-1.98-1.76-3.53-1.76-1.32,0-2.65.44-3.75,1.1-1.1.88-1.76,2.2-1.76,3.75s.22,2.86,1.1,3.75c.88,1.1,1.98,1.54,3.53,1.54s2.86-.22,3.75-1.1c.88-.88,1.54-1.98,1.54-3.53.22-1.32,0-2.65-.88-3.75M683.41,548.42c-.22,4.63-.66,9.26-.88,13.89l-9.92-.44.22-2.64c-.22.22-.66.66-1.32.88-.44.22-1.1.44-1.76.66-.66.22-1.32.22-1.98.44-.66.22-1.32,0-1.76,0-1.98-.22-3.97-.44-5.51-1.32-1.54-.66-3.08-1.76-4.19-2.87-1.1-1.32-1.98-2.65-2.42-4.41-.66-1.76-.88-3.75-.66-5.73.22-2.42.66-4.41,1.54-6.17.88-1.76,1.98-3.09,3.31-4.19,1.32-1.1,2.86-1.98,4.63-2.42,1.76-.44,3.31-.66,5.07-.66,1.98.22,3.53.44,4.63,1.1,1.32.66,2.2,1.32,2.86,1.98l.22-3.08,8.82.66c-.44,5.07-.66,9.7-.88,14.33"/><path class="cls-2" d="M688.7,553.71c-.22-3.75-.22-7.27,0-10.8,0-3.31.22-6.61.66-9.92.44-3.31.88-6.61,1.32-9.92l9.48.88-1.32,8.6c-.22,2.86-.44,5.73-.66,8.59-.22,3.75-.22,7.49,0,11.46.22,3.97.66,7.71,1.32,11.46l-9.7.44c-.44-3.75-.88-7.27-1.1-10.8"/><path class="cls-2" d="M704.35,554.15c-.22-3.75-.22-7.27-.22-10.8,0-3.31.22-6.61.44-9.92.22-3.31.66-6.61,1.1-9.92l9.48.66c-.44,2.87-.88,5.73-1.1,8.6-.22,2.87-.44,5.73-.44,8.6,0,3.75,0,7.49.22,11.46.22,3.97.66,7.71,1.54,11.46l-9.7.44c-.66-3.53-1.1-7.05-1.32-10.58"/><path class="cls-2" d="M759.23,556.57c-.66,1.54-1.54,2.87-2.65,3.97-1.1,1.1-2.2,1.98-3.75,2.65-1.32.66-2.86.88-4.19,1.1-1.98,0-3.75-.22-5.29-1.1-1.32-.66-2.65-1.76-3.53-3.09-.88-1.32-1.54-2.86-1.98-4.41-.44-1.54-.66-3.31-.66-5.07,0-2.2,0-4.19.44-6.39l-5.51-.22.44-7.49,6.39-.88c0-.44.22-1.1.22-1.98s.22-1.98.22-3.09,0-2.2.22-3.53c0-1.1.22-2.2.22-3.31l9.92-1.32c0,.66-.22,1.54-.22,2.87s-.22,2.64-.22,3.97v3.75c0,1.1-.22,1.98-.22,2.2l8.82-.22.22,8.6-10.14.44c0,.66-.22,1.54-.22,2.65-.22,1.1-.22,2.42-.22,3.53,0,.66,0,1.32.22,1.98.22.66.22,1.1.44,1.54.22.44.44.88.88,1.1.44.22.88.44,1.32.44s.88,0,1.1-.22c.44-.22.66-.44,1.1-.88.22-.44.44-.88.66-1.76.22-.88.22-1.54.22-2.87l6.39-.22v1.76c.22,2.42-.22,4.19-.66,5.51"/><path class="cls-2" d="M779.51,540.7c-.66-.66-1.54-.88-2.42-.66-.66,0-1.32.22-1.76.44-.44.22-.88.66-1.1,1.1-.22.44-.44.88-.66,1.32s-.22.88-.22,1.54l7.71-1.54c-.22-.88-.88-1.54-1.54-2.2M785.24,557.89c-2.42,1.32-5.07,1.98-7.71,2.2-1.98.22-3.75,0-5.51-.44-1.76-.44-3.53-1.1-4.85-2.2-1.54-1.1-2.64-2.42-3.53-3.97-.88-1.76-1.54-3.53-1.76-5.95-.22-2.2.22-4.19.88-5.95.66-1.76,1.76-3.31,3.09-4.63,1.32-1.32,2.86-2.42,4.63-3.08,1.76-.66,3.75-1.1,5.95-1.32,1.98-.22,3.75,0,5.29.44,1.54.44,3.08,1.1,4.19,2.2,1.1,1.1,2.2,2.2,2.86,3.75.66,1.54,1.1,3.31,1.32,5.29v1.98l-15.21,3.08c.22.66.66,1.1,1.54,1.54.88.44,1.76.66,2.86.44.66,0,1.32-.22,1.98-.44.88-.22,1.54-.44,2.2-.66.66-.22,1.32-.66,1.98-1.1s1.1-.88,1.54-1.32l4.63,4.63c-1.98,2.2-3.97,4.19-6.39,5.51"/><path class="cls-2" d="M810.58,540.48c-.88-.88-2.2-1.32-3.75-1.32-1.32.22-2.65.66-3.53,1.76-.88,1.1-1.32,2.42-1.1,3.97.22,1.54.66,2.65,1.76,3.53,1.1.88,2.2,1.1,3.75,1.1,1.54-.22,2.65-.66,3.53-1.76.88-.88,1.1-2.2,1.1-3.75-.22-1.32-.88-2.65-1.76-3.53M822.48,543.57c.44,4.63.88,9.26,1.32,13.89l-9.7,1.1-.22-2.65c-.22.44-.66.66-1.1,1.1-.44.22-1.1.66-1.54.88-.66.22-1.32.44-1.98.66-.66.22-1.32.22-1.76.44-1.98.22-3.97,0-5.73-.44-1.76-.44-3.31-1.1-4.63-2.2s-2.43-2.42-3.09-3.97c-.88-1.54-1.32-3.53-1.54-5.51-.22-2.42,0-4.41.66-6.39.66-1.76,1.54-3.31,2.65-4.63,1.1-1.32,2.64-2.42,4.19-3.09s3.31-1.1,4.85-1.32c1.98-.22,3.53,0,4.85.22,1.32.44,2.42.88,3.08,1.54l-.22-3.08,8.82-.88c.22,4.85.66,9.7,1.1,14.33"/><path class="cls-2" d="M851.58,547.98c-.66,1.54-1.54,2.65-2.65,3.75-1.1,1.1-2.2,1.76-3.53,2.42-1.32.66-2.65,1.1-3.97,1.1-2.43.22-4.63.22-6.61-.44-1.98-.66-3.53-1.32-4.85-2.64-1.32-1.1-2.42-2.65-3.31-4.19-.88-1.76-1.32-3.53-1.54-5.51-.22-2.2-.22-4.19.22-6.17.44-1.98,1.1-3.53,2.2-4.85,1.1-1.32,2.42-2.65,3.97-3.53,1.54-.88,3.53-1.54,5.73-1.76,3.53-.44,6.61.22,9.04,1.76,2.42,1.54,4.19,3.97,5.29,6.83l-7.49,2.87c-.44-.88-1.1-1.76-1.76-2.42-.88-.66-1.98-.88-3.75-.66-.44,0-1.1.22-1.54.44-.44.44-.88.66-1.32,1.32-.44.66-.66,1.1-.88,1.98-.22.66-.22,1.54-.22,2.64.22,1.76.88,3.31,1.98,4.19,1.1,1.1,2.42,1.32,3.75,1.32.44,0,.66-.22,1.32-.44.44-.22.88-.66,1.32-1.1.44-.44.88-.88,1.1-1.54.22-.44.44-1.1.44-1.76l7.94,1.32c.22,1.98-.22,3.53-.88,5.07"/><path class="cls-2" d="M882.87,540.04c0,.88.22,1.98.22,2.87v3.09c0,.88,0,1.98-.22,2.65l-9.92.88v-2.42c0-.88,0-1.76-.22-2.87,0-1.1,0-1.98-.22-2.86,0-1.1-.22-1.98-.22-2.87-.22-1.98-.88-3.31-1.32-3.97-.66-.88-1.54-1.1-2.86-.88-1.1.22-1.76.66-2.2,1.54-.44.88-.66,1.98-.44,3.08.22,1.32.44,2.42.44,3.31.22,1.1.22,1.98.44,2.87s.22,1.98.44,2.87c0,1.1.22,2.2.44,3.31l-10.58,1.1c-.44-3.31-.88-6.61-1.1-9.7-.44-3.08-.88-5.95-1.32-9.04-.44-3.09-.88-5.95-1.32-8.82-.44-2.87-1.1-6.17-1.54-9.26l10.58-1.32c0,1.1.22,2.2.44,3.31.22,1.32.44,2.64.66,3.75.22,1.32.44,2.65.66,3.97.22,1.32.44,2.42.66,3.31.44-.88,1.1-1.54,2.2-2.2s2.2-1.1,3.31-1.32c2.2-.44,3.97-.22,5.51.22,1.54.44,2.86,1.32,3.97,2.42,1.1,1.1,1.98,2.65,2.42,4.41.66,1.76,1.1,3.75,1.54,5.73-.44,1.1-.44,1.98-.44,2.86"/><path class="cls-2" d="M900.73,525.27c-.88-.44-1.76-.66-2.64-.44-.66.22-1.32.44-1.76.66-.44.44-.88.66-1.1,1.1-.22.44-.44.88-.44,1.54v1.54l7.49-2.42c0-.88-.66-1.54-1.54-1.98M908.44,541.58c-2.2,1.54-4.85,2.65-7.27,3.09-1.76.44-3.75.44-5.51.22-1.76-.22-3.53-.88-5.07-1.54-1.54-.88-2.87-1.98-3.97-3.53-1.1-1.54-1.98-3.31-2.42-5.73-.44-2.2-.44-4.19.22-5.95.44-1.76,1.32-3.53,2.42-4.85,1.1-1.54,2.65-2.65,4.41-3.53,1.76-.88,3.53-1.54,5.73-1.98,1.98-.44,3.53-.44,5.29-.22,1.54.22,3.08.88,4.41,1.54,1.32.88,2.42,1.98,3.31,3.31.88,1.32,1.54,3.09,1.98,5.07,0,.66.22,1.32.22,1.98l-14.77,4.85c.22.66.88,1.1,1.54,1.32.88.22,1.76.44,2.86.22.66-.22,1.32-.22,1.98-.66.66-.22,1.32-.66,2.2-.88.66-.44,1.32-.88,1.76-1.32.66-.44,1.1-1.1,1.54-1.54l5.07,3.97c-1.76,2.65-3.75,4.63-5.95,6.17"/><path class="cls-2" d="M932.68,517.78c-.66-.22-1.76,0-2.87.22-.66.22-1.32.66-1.98,1.1-.44.66-.88,1.32-1.1,2.2-.22.88-.44,1.76-.44,2.64s0,1.76.22,2.42c.22,1.32.44,2.43.88,3.09.22.88.44,1.76.66,2.64.22.88.44,1.76.88,2.65s.66,2.2,1.32,3.53l-10.14,2.64-7.93-26.67,8.82-2.87,2.86,7.71c0-.66,0-1.32.22-2.2,0-.88.44-1.76.66-2.87.44-.88.88-1.76,1.54-2.65.66-.66,1.54-1.32,2.43-1.54.88-.22,1.98-.22,2.86-.22s1.76.44,2.86.88l.66,8.16c-1.1-.44-1.76-.88-2.42-.88"/><path class="cls-2" d="M961.12,530.12c-1.76,1.98-4.19,3.31-7.71,3.97-2.42.66-4.85.66-7.05.44-2.2-.44-4.19-1.1-5.95-1.98l1.32-6.83c.66.22,1.32.66,1.98.88.66.22,1.32.44,2.2.66.88.22,1.54.22,2.42.22s1.76,0,2.65-.22c.22,0,.44-.22.66-.44.22-.22.22-.44.22-.88-.22-.44-.44-.88-1.1-1.1-.66-.22-1.32-.44-2.2-.66-.88-.22-1.98-.22-2.86-.44-1.1-.22-1.98-.66-3.09-1.1-.88-.44-1.76-1.1-2.64-1.98-.88-.88-1.32-1.98-1.76-3.53-.44-1.54-.44-2.86,0-3.97.44-1.1.88-2.2,1.76-3.09.66-.88,1.76-1.76,2.86-2.2,1.1-.66,2.42-1.1,3.53-1.32,1.1-.22,2.43-.44,3.53-.66h3.09c1.1.22,1.98.44,2.86.66.88.22,1.98.66,3.09,1.32l-1.98,6.39c-1.1-.66-2.42-1.1-3.53-1.32-1.32-.22-2.42-.22-3.75,0-.44,0-.66.22-.88.66-.22.44-.22.66-.22.88.22.44.44.66,1.1.88.66.22,1.32.22,2.2.22s1.98.22,3.09.22c1.1.22,2.2.44,3.08.88,1.1.44,1.98,1.1,2.65,1.98.88.88,1.32,2.2,1.76,3.53.88,3.75.22,6.17-1.32,7.93"/><path class="cls-2" d="M979.63,526.82c-.22,1.1-.44,2.2-1.1,3.31s-1.54,2.2-2.86,3.09c-1.32.88-2.86,1.76-4.85,2.42l-1.76-2.87c.22-.22.66-.22,1.1-.44s.88-.44,1.32-.66c.44-.22.88-.44,1.1-.88.22-.44.44-.44.44-.88-1.76.44-3.31.22-4.41-.66-1.1-.88-1.98-2.2-2.42-3.75-.22-.88-.22-1.54,0-2.42,0-.88.44-1.54.88-2.2.44-.66,1.1-1.32,1.76-1.76.66-.66,1.76-.88,2.65-1.1,1.1-.22,1.98-.22,3.09,0,.88.22,1.76.66,2.42,1.1.66.66,1.32,1.32,1.76,2.2.44.88.88,1.76,1.1,2.65-.22.88,0,1.98-.22,2.86"/><path class="cls-2" d="M1011.15,503.23c-1.1-.88-2.43-1.1-3.97-.88-1.32.22-2.42,1.1-3.31,2.2-.88,1.1-.88,2.64-.66,4.19.22,1.54,1.1,2.65,2.2,3.31,1.1.66,2.42.88,3.75.66,1.54-.22,2.65-1.1,3.31-2.2.66-1.1.88-2.42.66-3.75-.44-1.54-1.1-2.65-1.98-3.53M1023.27,504.78c1.1,4.63,1.98,9.04,2.86,13.67l-9.48,2.42-.44-2.42c-.22.44-.66.88-1.1,1.1-.44.44-.88.88-1.54,1.1-.66.44-1.1.66-1.76.88-.66.22-1.32.44-1.76.66-1.98.44-3.97.66-5.73.44-1.76-.22-3.3-.88-4.85-1.54-1.54-.88-2.65-1.98-3.75-3.53-1.1-1.54-1.76-3.31-2.2-5.29-.44-2.42-.66-4.41-.22-6.39.44-1.98,1.1-3.53,1.98-5.07,1.1-1.32,2.2-2.65,3.75-3.53,1.54-.88,3.08-1.54,4.63-1.98,1.76-.44,3.53-.44,4.85-.22,1.32.22,2.42.66,3.31,1.1l-.44-3.08,8.6-1.76c1.32,4.41,2.42,9.04,3.31,13.44"/><path class="cls-2" d="M1029.44,508.74c-1.1-3.53-1.76-7.05-2.43-10.58-.66-3.31-1.1-6.61-1.54-9.7-.44-3.31-.66-6.61-.88-9.92l9.48-1.32c.22,2.86.44,5.73.66,8.59.44,2.87.88,5.73,1.32,8.6.66,3.53,1.54,7.27,2.65,11.24,1.1,3.75,2.42,7.49,3.97,10.8l-9.48,2.65c-1.54-3.53-2.65-6.83-3.75-10.36"/><path class="cls-2" d="M1044.43,505.66c-.88-3.53-1.76-7.05-2.42-10.58-.66-3.31-1.1-6.61-1.54-9.92-.44-3.31-.66-6.61-.88-9.92l9.48-1.32c0,2.87.22,5.73.66,8.6.22,2.86.66,5.73,1.32,8.6.66,3.75,1.54,7.27,2.42,11.24,1.1,3.97,2.2,7.49,3.75,10.8l-9.48,2.43c-1.1-2.87-2.2-6.39-3.31-9.92"/><path class="cls-2" d="M1073.52,500.37c-.88-3.53-1.54-7.05-1.98-10.58-.44-3.31-.88-6.61-1.1-9.92-.22-3.31-.44-6.61-.66-9.92l9.48-.88c0,2.87.22,5.73.44,8.6.22,2.87.66,5.73,1.1,8.6.66,3.75,1.32,7.49,2.2,11.24.88,3.97,1.98,7.49,3.53,11.02l-9.48,2.2c-1.54-3.31-2.65-6.61-3.53-10.36"/><path class="cls-2" d="M1103.71,484.5c-.88-.44-1.76-.66-2.64-.66-.66,0-1.32.22-1.76.66-.44.44-.88.66-1.1,1.1-.22.44-.44.88-.44,1.32v1.54l7.49-1.98c-.22-.88-.88-1.54-1.54-1.98M1110.55,501.03c-2.43,1.54-4.85,2.42-7.49,2.87-1.98.22-3.75.22-5.51,0-1.76-.22-3.53-.88-5.07-1.76-1.54-.88-2.86-2.2-3.75-3.75-1.1-1.54-1.76-3.53-1.98-5.73-.22-2.2-.22-4.19.44-5.95.66-1.76,1.54-3.53,2.64-4.85,1.32-1.32,2.64-2.65,4.41-3.53,1.76-.88,3.75-1.54,5.73-1.76,1.98-.22,3.75-.22,5.29,0,1.54.44,3.09.88,4.41,1.76,1.32.88,2.21,1.98,3.09,3.53.88,1.32,1.32,3.09,1.54,5.07v1.98l-14.77,4.19c.22.66.88,1.1,1.54,1.54.88.44,1.76.44,2.86.22.66,0,1.32-.22,1.98-.44.66-.22,1.54-.44,2.2-.88s1.32-.66,1.98-1.32c.66-.44,1.1-.88,1.54-1.54l4.85,4.19c-1.76,2.87-3.75,4.63-5.95,6.17"/><path class="cls-2" d="M1138.98,498.17c-1.98,1.54-4.63,2.65-8.16,3.09-2.65.22-4.85,0-7.05-.66-2.2-.66-3.97-1.54-5.51-2.65l2.2-6.61c.66.44,1.1.66,1.76,1.1.66.22,1.32.66,1.98.88.66.22,1.54.44,2.2.66.88.22,1.76.22,2.86,0,.22,0,.66,0,.66-.22.22-.22.44-.44.22-.88,0-.44-.44-.88-.88-1.1-.66-.44-1.32-.66-2.2-.88-.88-.22-1.76-.44-2.86-.88-1.1-.44-1.98-.88-2.86-1.32-.88-.66-1.76-1.32-2.42-2.2-.66-.88-1.1-2.2-1.1-3.75-.22-1.54,0-2.87.44-3.97.44-1.1,1.1-1.98,1.98-2.86.88-.88,1.98-1.32,3.09-1.76,1.1-.44,2.42-.66,3.75-.88,1.32-.22,2.42-.22,3.53-.22s1.98.22,3.08.44c.88.22,1.98.66,2.87,1.1.88.44,1.98,1.1,2.86,1.76l-2.86,6.17c-1.1-.66-2.2-1.32-3.53-1.76-1.32-.44-2.42-.44-3.75-.44-.44,0-.66.22-.88.44-.22.22-.44.66-.22.88,0,.44.44.88,1.1,1.1.66.22,1.32.44,2.21.66.88.22,1.98.44,2.86.66,1.1.22,2.2.66,3.08,1.32.88.44,1.76,1.32,2.43,2.2.66,1.1,1.1,2.2,1.32,3.75.44,2.65-.22,5.07-2.2,6.83"/><path class="cls-2" d="M1164.99,496.4c-1.98,1.54-4.63,2.42-8.16,2.65-2.65.22-4.85,0-7.05-.88-2.2-.88-3.97-1.76-5.51-2.86l2.42-6.39c.66.44,1.1.66,1.76,1.1.66.44,1.32.66,1.98,1.1.66.22,1.54.44,2.2.66.88.22,1.76.22,2.87.22.22,0,.66,0,.66-.22.22-.22.44-.44.44-.88s-.44-.88-.88-1.32c-.66-.44-1.32-.66-2.2-.88-.88-.22-1.76-.66-2.86-.88-1.1-.44-1.98-.88-2.86-1.54-.88-.66-1.76-1.32-2.2-2.42-.66-.88-.88-2.2-1.1-3.75-.22-1.54,0-2.87.66-3.97.44-1.1,1.32-1.98,2.2-2.86.88-.88,1.98-1.32,3.31-1.76,1.1-.44,2.42-.66,3.75-.66h3.53c1.1,0,1.98.22,3.09.44.88.22,1.98.66,2.86,1.1.88.44,1.76,1.1,2.86,1.76l-3.09,5.95c-1.1-.88-2.2-1.32-3.31-1.76-1.1-.44-2.42-.66-3.75-.66-.44,0-.66.22-.88.44-.22.22-.44.66-.44.88,0,.44.44.88.88,1.1.44.22,1.32.44,2.2.66.88.22,1.98.44,2.86.88,1.1.22,1.98.88,2.86,1.32.88.66,1.76,1.32,2.42,2.43.66,1.1,1.1,2.2,1.1,3.97.22,3.09-.66,5.51-2.64,7.05"/><path class="cls-2" d="M1187.91,481.2c-.66-.88-1.76-1.32-3.31-1.32s-2.64.44-3.31,1.32c-.88.88-1.1,2.2-1.1,3.97,0,1.32.44,2.65,1.32,3.53.88.88,1.76,1.32,3.31,1.32s2.65-.44,3.31-1.54c.66-1.1,1.1-2.42,1.1-3.97-.22-1.32-.66-2.42-1.32-3.31M1197.61,490.45c-.88,1.54-1.76,2.87-3.09,3.97-1.32,1.1-2.87,1.98-4.41,2.65-1.54.66-3.31.88-5.07.88-1.98,0-3.75-.22-5.51-.66-1.76-.44-3.31-1.32-4.63-2.42s-2.42-2.42-3.31-4.19-1.32-3.53-1.32-5.95c0-2.2.22-3.97,1.1-5.51.88-1.54,1.98-2.87,3.31-3.97,1.32-1.1,2.86-1.76,4.63-2.42,1.76-.44,3.53-.88,5.29-.88,1.98,0,3.75.22,5.29.66,1.76.44,3.09,1.32,4.41,2.42,1.32,1.1,2.2,2.42,3.09,3.97.88,1.54,1.1,3.53,1.32,5.73,0,2.42-.22,4.19-1.1,5.73"/><path class="cls-2" d="M1230.89,488.69c0,1.32-.22,2.43-.22,3.75s-.22,2.42-.22,3.75-.22,1.98-.22,2.65l-10.36-.22c.22-2.42.44-4.85.66-6.83.22-2.2.44-3.97.44-5.51,0-1.98,0-3.53-.44-4.85-.44-1.32-1.32-1.98-2.42-1.98-1.32,0-2.42.22-3.31.88-.88.66-1.54,1.54-2.2,2.42v16.09h-9.92v-19.17c0-2.2,0-4.63-.22-7.27l9.92.22v2.65c.66-.66,1.54-1.54,2.87-1.98,1.32-.44,2.64-.88,4.19-.88,2.43,0,4.41.66,5.95,1.54,1.54.88,2.86,1.98,3.75,3.31.88,1.32,1.54,2.87,1.76,4.41.44,1.54.44,3.09.44,4.41-.22.44-.22,1.54-.44,2.64"/><path class="cls-2" d="M1253.15,498.39c-2.2,1.32-5.07,1.76-8.6,1.54-2.64-.22-4.85-.88-6.83-1.76-1.98-1.1-3.75-2.2-5.07-3.53l3.31-5.95c.44.44,1.1.88,1.54,1.32.66.44,1.1.88,1.76,1.32.66.44,1.32.66,2.2,1.1.88.22,1.76.44,2.65.66.22,0,.66,0,.88-.22.22-.22.44-.44.44-.88s-.22-.88-.66-1.32c-.44-.44-1.1-.88-1.98-1.32-.88-.44-1.76-.88-2.65-1.32-.88-.44-1.76-1.1-2.64-1.98-.88-.66-1.54-1.54-1.98-2.65-.44-1.1-.66-2.42-.44-3.97.22-1.54.44-2.87,1.32-3.75.66-1.1,1.54-1.76,2.64-2.42,1.1-.66,2.2-1.1,3.53-1.32,1.32-.22,2.64-.22,3.75-.22,1.32,0,2.42.22,3.53.44,1.1.22,1.98.66,2.86.88.88.44,1.76.88,2.65,1.54.88.66,1.76,1.32,2.65,2.2l-3.75,5.51c-.88-.88-1.98-1.76-3.09-2.2-1.1-.66-2.42-.88-3.53-1.1-.44,0-.66,0-1.1.22-.22.22-.44.44-.44.88s.22.88.88,1.1c.66.44,1.32.66,2.2.88.88.44,1.76.88,2.86,1.1,1.1.44,1.98,1.1,2.64,1.76.88.66,1.54,1.54,1.98,2.64s.66,2.42.66,3.97c-.66,3.53-1.98,5.73-4.19,6.83"/><path class="cls-2" d="M1271.66,500.37c-.44.88-1.1,1.32-1.76,1.76-.66.44-1.32.66-2.2.66h-2.65c-1.98-.22-3.53-.88-4.41-2.2-1.1-1.1-1.54-2.86-1.1-5.07.22-1.1.44-1.98.88-2.65.44-.66,1.1-1.32,1.76-1.76.66-.44,1.54-.66,2.2-.88.88-.22,1.76-.22,2.65,0,.88,0,1.76.44,2.42.66.66.22,1.32.88,1.98,1.54.44.66.88,1.32,1.1,1.98.22.66.44,1.54.22,2.42-.44,1.54-.66,2.65-1.1,3.53"/></g></g></g></svg>