<?xml version="1.0" encoding="UTF-8"?><svg id="ARTWORK" xmlns="http://www.w3.org/2000/svg" viewBox="0 0 151.2 151.2"><defs><style>.cls-1{fill:#009ab1;}.cls-2{fill:#fff;}</style></defs><rect class="cls-1" width="151.2" height="151.2"/><path class="cls-2" d="M39.3,84.31c-6.46-11.65,12.73-25.8,19.05-29.61,2.7-1.62,5.71-3.03,6.23-2.08.95,1.72-10.44,15.77-2.87,29.42,4.42,7.97,10.99,10.73,11.99,12.55.29.52.34,1.01-.13,1.3-2.22,1.34-27.63.43-34.28-11.57M103.7,47.63c-.47-.28-.86,0-1.14.53-1.01,1.82-.02,9.12-4.43,17.09-7.57,13.65-24.94,10.39-25.9,12.12-.53.95,2.15,2.96,4.85,4.58,6.33,3.8,27.69,14.03,34.15,2.38,6.65-12-5.29-35.37-7.52-36.7M74.21,19.35c12.91,0,15.09,24.38,15.09,31.99,0,3.25-.34,6.66-1.39,6.66-1.91,0-7.89-17.3-23.02-17.3-8.84,0-14.42,4.54-16.43,4.54-.57,0-1.01-.2-1.01-.77,0-2.67,13.46-25.13,26.76-25.13"/><path class="cls-2" d="M134.79,128.54c-.98,1.05-2.09,1.65-3.59,1.65-2.4,0-4.17-1.67-4.17-4.27s1.76-4.3,4.12-4.3c1.47,0,2.55.52,3.45,1.51l1.36-1.19c-1.12-1.12-2.57-1.99-4.83-1.99-3.5,0-6.09,2.51-6.09,5.96s2.59,5.94,6.09,5.94c2.26,0,3.69-.87,4.95-2.15l-1.29-1.17ZM122.98,116.25c0-.73-.64-1.35-1.41-1.35s-1.43.62-1.43,1.35.64,1.37,1.43,1.37,1.41-.62,1.41-1.37M120.6,131.62h1.9v-11.45h-1.9v11.45ZM111.2,129.52c-2.17,0-3.97-1.62-3.97-3.95s1.76-3.95,3.97-3.95,4.21,1.69,4.21,3.93-2.02,3.98-4.21,3.98M111.18,136.08c3.81,0,6.09-2.1,6.09-5.62v-10.28h-1.93v1.83h-.05c-.95-1.26-2.33-2.06-4.4-2.06-3.05,0-5.69,2.26-5.69,5.62s2.55,5.6,5.69,5.6c1.95,0,3.38-.8,4.4-2.15h.05v1.49c0,2.6-1.74,3.88-4.19,3.88-1.67,0-3.14-.41-4.55-1.42l-.95,1.44c1.71,1.19,3.55,1.67,5.52,1.67M97.12,130.19c-2.45,0-4.26-1.9-4.26-4.27s1.74-4.3,4.26-4.3,4.26,1.9,4.26,4.3-1.76,4.27-4.26,4.27M97.12,131.85c3.59,0,6.26-2.65,6.26-5.94s-2.67-5.96-6.26-5.96-6.26,2.63-6.26,5.96,2.67,5.94,6.26,5.94M86.43,131.62h1.93v-17.14h-1.93v17.14ZM81.6,120.02l-2.98,7.24h-.05l-3.02-7.24h-3.48l4.95,11.06-.21.48c-.62,1.39-1.21,1.78-2.28,1.78-.5,0-1.05-.14-1.6-.37l-.88,2.51c.88.32,2.02.59,2.83.59,2.62,0,3.78-1.42,4.71-3.56l5.31-12.5h-3.31ZM67.15,121.36h-.05v-1.35h-3.19v11.61h3.19v-6.22c0-2.01,1-2.99,2.55-2.99.45,0,1.02.02,1.5.16l.17-2.76c-.14,0-.33-.02-.48-.02-1.88,0-3.07.73-3.69,1.58M55.06,129.18c-1.74,0-3.14-1.21-3.14-3.36s1.5-3.36,3.14-3.36,3.09,1.21,3.09,3.36-1.48,3.36-3.09,3.36M54.3,131.85c1.69,0,2.83-.64,3.62-1.58h.05v1.35h3.21v-11.81h-3.21v1.58h-.05c-.83-.96-2.02-1.6-3.69-1.6-2.88,0-5.52,1.99-5.52,6.03s2.69,6.03,5.59,6.03M35.77,131.62h3.19v-6.49c0-1.69,1-2.67,2.33-2.67s2.29.89,2.29,2.56v6.6h3.17v-7.31c0-2.88-1.83-4.52-4.26-4.52-1.5,0-2.67.57-3.48,1.55h-.05v-1.32h-3.19v11.61ZM33.3,116.43c0-1.03-.86-1.85-1.93-1.85s-1.9.82-1.9,1.85.86,1.85,1.9,1.85,1.93-.82,1.93-1.85M29.77,131.62h3.19v-11.61h-3.19v11.61ZM21.24,129.18c-1.62,0-3.12-1.26-3.12-3.36s1.5-3.36,3.12-3.36,3.14,1.23,3.14,3.36-1.4,3.36-3.14,3.36M21.98,131.85c2.9,0,5.62-1.99,5.62-6.03s-2.66-6.03-5.52-6.03c-1.67,0-2.86.62-3.71,1.6h-.05v-6.9h-3.19v17.14h3.19v-1.35h.05c.78.94,1.95,1.58,3.62,1.58"/></svg>