<?xml version="1.0" encoding="UTF-8"?><svg id="Layer_1" xmlns="http://www.w3.org/2000/svg" viewBox="0 0 16.85 16.85"><defs><style>.cls-1{fill:#dc0a11;}</style></defs><g id="error_transparent_copy"><path class="cls-1" d="m8.43,0C3.77,0,0,3.77,0,8.43s3.77,8.43,8.43,8.43,8.43-3.77,8.43-8.43S13.08,0,8.43,0Zm0,16.01c-4.19,0-7.58-3.4-7.58-7.58S4.24.84,8.43.84s7.58,3.4,7.58,7.58-3.4,7.58-7.58,7.58Zm3.06-10.16c-.12-.12-.31-.12-.42,0l-3.8,3.8-1.81-1.82c-.12-.12-.31-.12-.42,0l-.63.63c-.12.12-.12.31,0,.42l2.01,2.03s0,0,0,0l.44.44.1.1h0s.09.09.09.09c.12.12.31.12.42,0l4.65-4.65c.12-.12.12-.31,0-.42l-.63-.63Z"/></g></svg>