<?xml version="1.0" encoding="UTF-8"?><svg id="Layer_2" xmlns="http://www.w3.org/2000/svg" xmlns:xlink="http://www.w3.org/1999/xlink" viewBox="0 0 92.02 50.13"><defs><style>.cls-1,.cls-2,.cls-3{fill:none;}.cls-2{clip-path:url(#clippath-1);}.cls-4{fill:#e63327;}.cls-5{fill:#fff;}.cls-6{fill:#1d1d1b;}.cls-7{fill:#3973b9;}.cls-8{fill:#783f91;}.cls-3{clip-path:url(#clippath);}</style><clipPath id="clippath"><rect class="cls-1" width="92.02" height="50.13"/></clipPath><clipPath id="clippath-1"><rect class="cls-1" x="15.57" y="0" width="32.51" height="10.86"/></clipPath></defs><g id="Layer_1-2"><g class="cls-3"><path class="cls-6" d="m88.08,23.34c0,1.74.04,4.57-.04,5.05-.67.87-1.54,1.18-2.25,1.18-1.03,0-1.81-1.93-1.81-6.9,0-3.19.59-3.9,2.29-3.9.67,0,1.46.16,1.81.32v4.26Zm3.94,1.38v-11.51c-1.06.04-3.59-.16-3.86-.2,0,0,.08,2.21.12,2.64-.87-.28-2.92-.71-3.75-.71-3.27,0-4.69,3.98-4.69,9.66,0,3,.51,4.97,1.62,6.55,1.18,1.7,1.93,1.97,2.72,1.97,1.07,0,3.12-.47,3.9-1.22.08.95-.2,2.17-.59,2.64-.75.99-2.13,2.09-4.42,2.8,0,0,1.3,1.81,1.74,2.96.95,0,3.79-1.66,5.01-2.76.95-.79,1.62-2.21,1.77-3.35.39-3.19.43-8.4.43-9.46m-14.39,7.65v-12.26c0-3.79-1.18-5.44-3.51-5.44-1.46,0-3.63.67-4.77,1.42l.04-2.01c-1.5.24-3.31.35-4.61.35.24,1.1.36,3.23.47,5.28.2,3.63.59,10.49.39,12.93,1.46-.08,2.92-.08,4.3-.28-.2-1.73-.51-11.43-.55-13.09.83-.55,2.29-1.1,3.04-1.1,1.07,0,1.07,1.18,1.07,2.68-.04,1.18.04,4.97.04,6.03,0,.71-.08,2.96-.24,5.05,1.74.04,2.68.16,4.34.43m-14.86-.28c-.12-1.62-.2-4.02-.24-4.45-.04-.59-.16-5.13-.16-6.03,0-1.06.08-3.43.12-4.1.04-.43.08-1.97.24-2.96-1.62.04-3.31-.04-4.34-.16,0,1.34.12,7.69.12,8.64s.08,7.25-.04,9.94c1.34-.43,3.31-.79,4.3-.87m.51-23.46c0-1.34-1.14-2.17-2.6-2.17-1.34,0-2.56,1.18-2.56,2.21,0,1.22,1.18,2.25,2.56,2.25s2.6-1.1,2.6-2.29m-11.39,19.32c-.59.63-1.46,1.02-2.17,1.02-1.66,0-2.4-2.76-2.4-6.39s.67-4.61,2.05-4.61c.75,0,1.93.39,2.48.79.24,1.58.04,6.55.04,9.19m4.06.16c0-1.46-.04-8.83-.04-9.5V6.11c-1.1.2-4.14.43-4.14.43,0,0,.12,2.6.16,4.69.04,1.58.08,3.23.08,3.94-.87-.32-2.13-.87-3.15-.87-1.93,0-3.94,2.29-4.46,3.23-.47.87-1.26,3.35-1.26,6.58,0,5.05,2.29,8.24,4.81,8.24,1.18,0,3.08-.51,4.1-1.26l.79,1.66c1.03-.43,1.74-.67,3.08-.79-.16-1.66-.08-3.27.04-3.86m-19.12-4.61c.04.59-.08,3.59-.12,3.98-.32.35-1.62,1.54-2.68,1.54-.91,0-1.34-.91-1.34-2.41,0-.87.75-1.77,1.58-2.13.55-.28,2.17-.75,2.56-.99m4.34,8.95c-.2-.87-.32-2.56-.32-3.98,0-3.59-.04-8.91-.04-9.15,0-1.38-.63-3.08-1.85-3.71-1.62-.83-4.02-1.18-6.82-1.5.04,1.34-.2,3.55-.2,3.55,2.05,0,3.35.16,4.22.55.51.28.63.91.63,2.25-1.1.35-3.35.99-5.6,2.05-1.97.91-2.44,2.96-2.44,4.57,0,3.31,2.48,5.56,4.02,5.56s3.31-1.14,4.18-2.01c.08.63.24,2.21.51,2.92,1.34-.67,2.33-.75,3.71-1.1m-18.14-11.16c-.43.04-1.66.16-2.37.2-.39.08-1.5.04-1.81,0-.16-2.33,1.03-3.74,2.17-3.74,1.3,0,1.81,1.58,2.01,3.55m4.53,8.83c-.51-.79-.95-1.58-1.22-2.48-1.66.83-3.43,1.14-4.26,1.14-.91,0-1.97-.67-2.33-1.14-.55-.71-.87-1.74-.91-3.08.99-.04,4.93-.2,8.24-.47-.28-5.56-1.97-9.58-5.48-9.58-3.71,0-6.86,1.66-6.86,8.95,0,2.84.59,5.48,2.25,7.02,1.18,1.14,3.27,1.93,4.85,1.93,1.14,0,4.85-1.06,5.72-2.29M8.28,12.46c0,2.92-.59,5.09-2.56,5.64-.43.12-1.18.24-1.42.28-.04-.91-.04-7.53-.08-9.46,2.56,0,4.06.55,4.06,3.55m6.35,18.53c-2.6-5.4-4.42-8.59-5.36-10.96,2.21-1.38,3.63-4.77,3.63-8.08,0-3.67-2.88-6.58-9.26-6.58-1.1,0-1.69-.04-3.35.12,0,0-.04,4.3-.04,7.57,0,3.47-.08,10.37-.08,11.24C.16,25.94.08,29.73,0,32.17c1.03,0,3.23-.36,4.65-.47-.2-1.89-.28-4.61-.35-7.33,0-1.5-.04-2.44-.08-2.68.43-.08,1.34-.24,1.34-.24,1.18,2.33,3.63,7.61,5.01,11.12,1.3-.43,2.76-1.18,4.06-1.58"/><path class="cls-6" d="m82.61,37.74c-.88-.2-1.51-.41-2.45-.78-.29,1.51-.96,3.54-1.47,4.93-.61-1.24-1.61-3.95-1.88-4.86-.8.33-1.59.56-2.51.74.77,1.46,2.66,5.15,3.33,6.68-.04,1.73-.13,4.29-.29,5.54.86,0,1.86.02,2.62.06.06-1.34-.08-5.03-.08-5.87.48-1.2,1.86-4.47,2.74-6.45m-11.24,2.57c0,1.44-.31,2.51-1.36,2.78-.23.06-.63.12-.75.14-.02-.45-.02-3.71-.04-4.66,1.36,0,2.16.27,2.16,1.75m3.37,9.13c-1.38-2.66-2.34-4.24-2.85-5.4,1.17-.68,1.93-2.35,1.93-3.98,0-1.81-1.53-3.24-4.92-3.24-.59,0-.9-.02-1.78.06,0,0-.02,2.12-.02,3.73,0,1.71-.04,5.11-.04,5.54,0,.82-.04,2.68-.08,3.89.54,0,1.72-.17,2.47-.23-.11-.93-.15-2.27-.19-3.61,0-.74-.02-1.2-.04-1.32.23-.04.71-.12.71-.12.63,1.15,1.93,3.75,2.66,5.48.69-.21,1.46-.58,2.16-.78m-11.43-5.99c0,2.55-.94,4.84-1.88,4.84-1.19,0-1.88-1.77-1.88-4.97,0-2.8.4-4.33,1.44-4.33,1.15,0,2.32.6,2.32,4.47m2.36-.06c0-4.84-2.22-6.3-4.46-6.3-2.91,0-4.06,1.83-4.06,6.33s2.05,6.8,4,6.8c1.8,0,4.52-1.92,4.52-6.84m-8.96-6.06c-.84,0-3.66-.04-5.76-.16-.4-.02-.82-.04-1.4-.14,0,.49-.15,1.46-.36,1.98.67,0,1.28.02,1.8.02.29,0,.67-.02.84-.04,0,1.34.08,3.71.02,5.95-.04,1.86-.13,3.87-.25,5.05.86,0,1.72.14,2.55.14.06-1.28.04-2.14.02-3.34-.04-2.78-.25-6.78-.29-7.6.46.04,2.07.19,2.51.19.04-.58.17-1.57.31-2.06m-9.84,8.26c-.44.06-1.49.04-1.86.1.11-.58.67-3.96.82-4.96.23.93.88,4.12,1.05,4.86m3.35,4.39c-.23-.88-3.24-12.26-3.41-12.96-.46.08-1.76.15-2.26.21,0,.33-.19,1.26-.29,1.9-.67,4.04-2.11,9.79-2.32,10.59.61.16,1.46.45,2.18.74.08-.6.48-2.39.59-2.93.42-.02,2.16-.1,2.64-.12,0,.12.02.25.04.39.1.74.5,1.96.59,2.68.63-.18,1.69-.41,2.26-.51m-11.91-9.68c0,1.44-.31,2.51-1.36,2.78-.23.06-.63.12-.75.14-.02-.45-.02-3.71-.04-4.66,1.36,0,2.16.27,2.16,1.75m3.37,9.13c-1.38-2.66-2.34-4.24-2.85-5.4,1.17-.68,1.93-2.35,1.93-3.98,0-1.81-1.53-3.24-4.92-3.24-.59,0-.9-.02-1.78.06,0,0-.02,2.12-.02,3.73,0,1.71-.04,5.11-.04,5.54,0,.82-.04,2.68-.08,3.89.54,0,1.72-.17,2.47-.23-.1-.93-.15-2.27-.19-3.61,0-.74-.02-1.2-.04-1.32.23-.04.71-.12.71-.12.63,1.15,1.92,3.75,2.66,5.48.69-.21,1.47-.58,2.16-.78m-11.43-5.99c0,2.55-.94,4.84-1.88,4.84-1.19,0-1.88-1.77-1.88-4.97,0-2.8.4-4.33,1.44-4.33,1.15,0,2.32.6,2.32,4.47m2.37-.06c0-4.84-2.22-6.3-4.46-6.3-2.91,0-4.06,1.83-4.06,6.33s2.05,6.8,4,6.8c1.8,0,4.52-1.92,4.52-6.84m-11.87,2.78c0,1.34-.71,2.16-1.78,2.16,0,0-.36,0-.54-.04-.02-.72-.02-1.15-.02-1.86,0-.82-.02-1.73.02-2.27,1.4.02,2.32.87,2.32,2.02m-.19-5.28c0,1.38-1.09,1.83-2.16,1.73,0-.76,0-3.11.02-3.6,1.21.06,2.14.7,2.14,1.87m2.57,5.19c0-1.38-1.07-2.21-2.05-2.68.84-.37,1.67-1.03,1.67-2.97,0-1.71-2.01-3.25-4.6-3.25-.86,0-1.49.04-2.09.04.08.62.1,1.87.12,2.9.02.95.02,1.73.04,2.74.02.64.08,5.61-.08,7.17.86,0,1.84.04,2.28.04,3.16,0,4.71-2,4.71-3.98m-11.24-.49c-.44.06-1.49.04-1.86.1.1-.58.67-3.96.82-4.96.23.93.88,4.12,1.05,4.86m3.35,4.39c-.23-.88-3.24-12.26-3.41-12.96-.46.08-1.76.15-2.26.21,0,.33-.19,1.26-.29,1.9-.67,4.04-2.11,9.79-2.32,10.59.61.16,1.47.45,2.18.74.08-.6.48-2.39.59-2.93.42-.02,2.16-.1,2.64-.12,0,.12.02.25.04.39.1.74.5,1.96.59,2.68.63-.18,1.69-.41,2.26-.51m-8.56-1.75c-1.28.1-3.16.06-3.96.08.02-1.77.06-9.93.02-11.27-.78.1-1.63.25-2.49.25.1.82.08,2.02.1,3.13.06,3.61,0,8.02-.15,9.54.8.06,2.51.08,3.85.16.71.04,1.59.08,2.15.15.19-.82.27-1.28.46-2.04"/><path class="cls-6" d="m84.44,46.84v-.97h.46c.29,0,.47.17.47.47s-.18.49-.47.49h-.46Zm-.55,1.53h.55v-1.13h.47l.54,1.13h.6l-.56-1.08c-.07-.13-.1-.16-.1-.16v-.02c.24-.06.53-.33.53-.77,0-.54-.37-.89-.92-.89h-1.12v2.92Zm-1.24-1.45c0-1.29.95-2.3,2.18-2.3s2.2,1.01,2.2,2.3-.96,2.3-2.2,2.3-2.18-1.01-2.18-2.3m-.56,0c0,1.57,1.22,2.82,2.74,2.82s2.77-1.25,2.77-2.82-1.23-2.82-2.77-2.82-2.74,1.25-2.74,2.82"/></g><g class="cls-2"><rect class="cls-7" x="15.57" y="0" width="10.83" height="10.83" rx=".47" ry=".47"/><rect class="cls-8" x="26.41" y="0" width="10.83" height="10.83" rx=".47" ry=".47"/><rect class="cls-4" x="37.25" y=".02" width="10.83" height="10.83" rx=".47" ry=".47"/><path class="cls-5" d="m17.81,7.99l1.12-1.34c.72.57,1.52.87,2.36.87.54,0,.83-.19.83-.5v-.02c0-.3-.24-.47-1.23-.7-1.55-.35-2.75-.79-2.75-2.29v-.02c0-1.35,1.07-2.33,2.82-2.33,1.24,0,2.21.33,2.99.97l-1.01,1.42c-.67-.47-1.39-.72-2.04-.72-.49,0-.73.21-.73.47v.02c0,.33.25.48,1.26.71,1.67.36,2.71.9,2.71,2.27v.02c0,1.49-1.18,2.37-2.94,2.37-1.29,0-2.52-.4-3.41-1.21"/><path class="cls-5" d="m28.58,1.7h3.44c1.11,0,1.88.29,2.37.79.43.42.64.98.64,1.69v.02c0,1.11-.59,1.85-1.5,2.23l1.74,2.54h-2.33l-1.47-2.2h-.88v2.2h-2.02V1.7Zm3.35,3.49c.68,0,1.08-.33,1.08-.86v-.02c0-.57-.42-.86-1.09-.86h-1.32v1.75h1.33Z"/><path class="cls-5" d="m41.68,1.77h1.94l3.1,7.33h-2.16l-.53-1.3h-2.81l-.52,1.3h-2.12l3.1-7.33Zm1.77,4.46l-.81-2.07-.82,2.07h1.63Z"/></g></g></svg>