<svg width="43" height="43" viewBox="0 0 43 43" fill="none" xmlns="http://www.w3.org/2000/svg">
<g clip-path="url(#clip0_34_2)">
<path d="M21.5 42.3639C33.0228 42.3639 42.3639 33.0228 42.3639 21.5C42.3639 9.9772 33.0228 0.636108 21.5 0.636108C9.9772 0.636108 0.636108 9.9772 0.636108 21.5C0.636108 33.0228 9.9772 42.3639 21.5 42.3639Z" stroke="white" stroke-width="1.9" stroke-miterlimit="10"/>
<path d="M30.2069 19.4136L18.3501 12.5692C17.9838 12.3581 17.5685 12.247 17.1457 12.2472C16.723 12.2473 16.3077 12.3587 15.9416 12.5701C15.5756 12.7815 15.2715 13.0855 15.0601 13.4516C14.8487 13.8176 14.7372 14.2329 14.7371 14.6556V28.3444C14.7372 28.7671 14.8487 29.1824 15.0601 29.5485C15.2715 29.9145 15.5756 30.2185 15.9416 30.4299C16.3077 30.6413 16.723 30.7527 17.1457 30.7529C17.5685 30.753 17.9838 30.6419 18.3501 30.4308L30.2069 23.5864C30.573 23.3749 30.8771 23.0707 31.0884 22.7045C31.2998 22.3383 31.4111 21.9229 31.4111 21.5C31.4111 21.0772 31.2998 20.6618 31.0884 20.2955C30.8771 19.9293 30.573 19.6251 30.2069 19.4136Z" stroke="white" stroke-width="1.9" stroke-miterlimit="10"/>
</g>
<defs>
<clipPath id="clip0_34_2">
<rect width="43" height="43" fill="white"/>
</clipPath>
</defs>
</svg>
